<?xml version="1.0" encoding="utf-8"?>
<!-- Generator: Adobe Illustrator 16.0.0, SVG Export Plug-In . SVG Version: 6.00 Build 0)  -->
<!DOCTYPE svg PUBLIC "-//W3C//DTD SVG 1.1//EN" "http://www.w3.org/Graphics/SVG/1.1/DTD/svg11.dtd">
<svg version="1.1" id="Layer_1" xmlns="http://www.w3.org/2000/svg" xmlns:xlink="http://www.w3.org/1999/xlink" x="0px" y="0px"
	 width="356.454px" height="331.545px" viewBox="0 0 356.454 331.545" enable-background="new 0 0 356.454 331.545"
	 xml:space="preserve">
<path fill="#FFFFFF" d="M334.863,68c0,6.627-5.373,12-12,12H24.136c-6.627,0-12-5.373-12-12V21.545c0-6.627,5.373-12,12-12h298.727
	c6.627,0,12,5.373,12,12V68z"/>
<path fill="#FFFFFF" d="M334.864,187.682c0,6.628-5.373,12-12,12H24.137c-6.627,0-12-5.372-12-12v-46.454c0-6.627,5.373-12,12-12
	h298.728c6.627,0,12,5.373,12,12V187.682z"/>
<path fill="#FFFFFF" d="M334.864,308.409c0,6.628-5.373,12-12,12H24.137c-6.627,0-12-5.372-12-12v-46.454c0-6.627,5.373-12,12-12
	h298.728c6.627,0,12,5.373,12,12V308.409z"/>
</svg>
