<?xml version="1.0" encoding="utf-8"?>
<!-- Generator: Adobe Illustrator 16.0.0, SVG Export Plug-In . SVG Version: 6.00 Build 0)  -->
<!DOCTYPE svg PUBLIC "-//W3C//DTD SVG 1.1//EN" "http://www.w3.org/Graphics/SVG/1.1/DTD/svg11.dtd">
<svg version="1.1" xmlns="http://www.w3.org/2000/svg" xmlns:xlink="http://www.w3.org/1999/xlink" x="0px" y="0px"
	 width="855.89px" height="724px" viewBox="0 0 855.89 724" enable-background="new 0 0 855.89 724" xml:space="preserve">
<g id="Layer_3" display="none">
	<path display="inline" fill="#E34398" d="M144.358,169.194c0,0,51.611-53.752,101.698-15.334c0,0,48.373,45.005,88.428,39.14
		c0,0,87.434,0.296,109.644,27.278c0,0,63.282-8.222,36.749-54.252c0,0-33.337-19.474-53.07-10.169c0,0,22.766-13.648-23.146-0.655
		c0,0,0.917-13.728-19.551-5.135c0,0,13.318-12.246,32.162-12.792l-0.457-7.088c0,0,34.453,2.408,35.382,3.977l-2.085-6.691
		c0,0,24.204,5.351,25.751,12.178l0.574,2.556l9.072-3.106l5.082,19.907l2.917,0.189c0,0,18.102,46.892-20.233,67.93
		c0,0-39.161,7.298-12.535,23.305c0,0,31.024,66.958,24.806,92.773c0,0,10.511,31.184,7.151,35.377c0,0-3.768,25.218,16.686,43.183
		c0,0,15.656,27.229-3.696,40.721l6.655,17.952c0,0-9.438,30.654-18.803,34.957c0,0,26.262,55.024,38.812,53.315l4.054,17.907
		l3.939-1.635l3.771,16.631c0,0-8.35,8.784-16.434,7.38l-1.97-4.915c0,0-4.134-3.048-7.5,1.147l0.778,7.235
		c0,0-13.112,10.62-35.141-2.906l-5.041-29.821l5.381-6.716l-16.698-54.649l-10.622,2.589l-9.252-17.995l-4.519-0.919l-5.647-13.479
		l-12.11,3.631c0,0,1.857-14.628-3.045-13.433l-2.394,4.629l-5.719,1.394c0,0,1.277-17.186-12.611-13.797l-2.352,8.669
		l-12.249,2.989l-1.002,6.99l-7.266-1.601l0.791,18.703l-10.615,2.591l1.885,8.315l-10.913,1.306l1.021,4.476l-5.724,1.399
		l-3.375-7.281c0,0-9.943,1.753-8.771,18.337l-5.863,0.759c0,0-3.467-3.885-5.918-3.287c0,0-28.851,40.105-13.075,45.04
		l6.485,36.215c0,0-23.425,25.953-39.72,22.505c0,0-0.996-23.387-10.681-1.452c0,0-12.399,2.352-4.885-29.184l-0.923-7.875
		c0,0,22.313-27.033,6.8-23.252c0,0-20.123,17.724-18.679,24.122l-4.994,4.592c0,0-14.14-5.324-17.401-4.524
		c0,0-18.692,12.65-16.519,22.241c0,0,0.767,37.616-6.968,41.526l1.463,17.864c0,0-27.703,22.271-43.047,19.266
		c0,0,7.196-13.899,2.292-12.709c0,0-7.15,6.468-7.103,10.506c0.058,4.036,0.058,4.036,0.058,4.036s-15.78-4.93-16.645-8.769
		c0,0,2.516-26.938,4.962-27.529c2.45-0.602,2.45-0.602,2.45-0.602s-1.062-8.516,1.384-9.107c0,0,41.609-56.036,30.176-53.249
		l-14.291-5.968c0,0-1.979-46.767,8.498-49.995c10.481-3.233-2.215-2.164-2.215-2.164s-17.816,16.491-16.511,22.248
		c0,0-15.242-6.41-14.617-11.287l-6.45-1.803l4.564-6.513l-7.643,0.513c0,0-3.985-32.77,0.1-33.765c0,0-31.787-7.107-39.555,4.24
		l4.975,25.777c0,0-5.613,9.468-9.983,9.184L93.5,572.39c0,0-4.653,9.903,2.465,10.874l13.506-1.271l15.493,15.124
		c0,0,9.436,11.2,5.694,17.512l-13.291,17.414l-6.826,0.313c0,0-8.136-5.438-10.588-4.845c-2.451,0.598-2.451,0.598-2.451,0.598
		l8.566,7.362l-2.92,6.111l-31.713-21.971l-3.519-7.917c0,0-32.558-14.336-20.344-51.741c0,0-7.611-18.386-15.788-16.397
		c0,0-0.627-36.972,10.817-39.761l-1.562-14.47l3.637-14.386l-3.61-4.516l-1.009-4.479l22.769-55.499l-4.487-8.356l13.191-25.485
		c0,0-23.118-75.36,41.447-151.84l1.91-10.59C114.889,214.175,129.85,177.455,144.358,169.194z"/>
	<path display="inline" fill="#E34398" d="M164.324,702.518c-0.025,0-0.05-0.004-0.075-0.012c-0.65-0.203-15.927-5.018-16.813-8.952
		c-0.006-0.025-0.008-0.052-0.005-0.078c0.423-4.527,2.659-27.146,5.153-27.749l2.234-0.549c-0.175-1.534-0.823-8.394,1.509-9.135
		c12.049-16.233,34.158-47.99,31.918-52.44c-0.221-0.44-0.722-0.548-1.533-0.348c-0.052,0.013-0.106,0.008-0.155-0.013
		l-14.291-5.968c-0.09-0.037-0.149-0.123-0.154-0.22c-0.081-1.918-1.866-46.997,8.674-50.245c3.208-0.989,3.828-1.459,3.947-1.606
		c-0.119-0.07-0.586-0.238-2.315-0.238c-1.526,0-3.265,0.13-3.667,0.162c-1.16,1.084-17.594,16.567-16.375,21.95
		c0.021,0.092-0.011,0.188-0.083,0.247c-0.072,0.062-0.172,0.074-0.258,0.039c-0.62-0.261-14.986-6.362-14.786-11.332l-6.251-1.747
		c-0.078-0.022-0.141-0.081-0.168-0.157s-0.016-0.161,0.031-0.228l4.265-6.085l-7.122,0.478c-0.119,0.028-0.249-0.087-0.265-0.219
		c-0.39-3.207-3.549-30.101-0.286-33.673c-2.253-0.462-10.721-2.07-19.258-2.07c-9.968,0-16.493,2.101-19.397,6.244l4.955,25.675
		c0.011,0.06,0,0.122-0.031,0.175c-0.225,0.378-5.528,9.237-9.948,9.312L93.75,572.39c0,0.037-0.008,0.073-0.024,0.106
		c-0.025,0.055-2.563,5.537-0.91,8.577c0.588,1.081,1.659,1.735,3.182,1.942l13.449-1.272c0.072-0.01,0.146,0.019,0.198,0.07
		l15.493,15.124c0.406,0.48,9.523,11.427,5.734,17.818l-13.307,17.438c-0.045,0.059-0.113,0.095-0.188,0.099l-6.826,0.313
		c-0.059-0.002-0.106-0.013-0.151-0.042c-0.072-0.049-7.285-4.848-10.025-4.848c-0.137,0-0.26,0.013-0.365,0.038l-1.978,0.482
		l8.198,7.045c0.085,0.073,0.111,0.195,0.062,0.297l-2.92,6.111c-0.032,0.066-0.091,0.115-0.162,0.134
		c-0.07,0.02-0.146,0.006-0.207-0.036l-31.713-21.971c-0.038-0.025-0.068-0.062-0.086-0.104l-3.48-7.831
		c-0.91-0.423-8.553-4.125-14.757-11.875c-6.062-7.572-11.96-20.663-5.664-40.042c-0.542-1.271-7.117-16.31-14.268-16.31
		c-0.401,0-0.803,0.048-1.194,0.144c-0.074,0.018-0.152,0.002-0.212-0.045s-0.096-0.118-0.097-0.194
		c-0.025-1.508-0.493-36.765,10.796-39.951l-1.539-14.257c-0.003-0.029-0.001-0.059,0.006-0.088l3.606-14.265l-3.533-4.419
		c-0.023-0.029-0.041-0.064-0.048-0.102L39.814,466c-0.011-0.05-0.007-0.103,0.012-0.149l22.725-55.39l-4.431-8.252
		c-0.039-0.073-0.04-0.16-0.002-0.233l13.146-25.396c-0.443-1.519-5.654-20.16-3.469-47.235c2.092-25.937,11.59-65.149,44.95-104.69
		l1.898-10.524c0.165-0.417,15.154-36.893,29.561-45.137c1.003-1.028,28.918-29.225,62.945-29.225c13.9,0,27.042,4.674,39.06,13.892
		c0.125,0.114,10.843,10.035,26.104,19.826c14.07,9.028,34.989,19.79,54.741,19.79c2.53,0,5.018-0.177,7.395-0.525
		c0.002,0,0.005,0,0.009,0c0.579,0,22.37,0.137,46.555,3.521c22.463,3.143,51.635,9.811,63.22,23.738
		c2.264-0.326,31.693-4.896,40.428-22.556c4.297-8.688,2.963-19.2-3.966-31.246c-1.252-0.719-22.287-12.621-40.29-12.621
		c-4.777,0-8.979,0.839-12.49,2.495c-0.12,0.056-0.264,0.01-0.327-0.108c-0.062-0.117-0.022-0.264,0.092-0.332
		c2.293-1.375,5.816-3.976,5.505-5.1c-0.125-0.452-1-0.7-2.464-0.7c-4.115,0-12.859,1.884-25.99,5.601
		c-0.076,0.021-0.162,0.005-0.225-0.046s-0.098-0.13-0.092-0.211c0.002-0.032,0.185-3.238-1.916-5.48
		c-2.925-3.121-8.894-2.931-17.289,0.592c-0.111,0.047-0.241,0.007-0.307-0.096c-0.065-0.102-0.048-0.236,0.041-0.319
		c0.133-0.123,13.48-12.202,32.065-12.85l-0.44-6.831c-0.005-0.072,0.022-0.143,0.073-0.193s0.126-0.079,0.194-0.072
		c5.356,0.375,30.568,2.204,34.953,3.744l-1.911-6.135c-0.027-0.085-0.006-0.178,0.054-0.243s0.152-0.094,0.238-0.075
		c0.995,0.22,24.377,5.465,25.941,12.367l0.513,2.284l8.809-3.016c0.065-0.023,0.139-0.017,0.2,0.017
		c0.062,0.033,0.105,0.09,0.123,0.158l5.037,19.731l2.736,0.178c0.097,0.006,0.182,0.068,0.217,0.16
		c0.045,0.118,4.54,11.933,4.275,26.17c-0.244,13.161-4.715,31.144-24.622,42.068c-0.023,0.013-0.048,0.021-0.074,0.026
		c-0.201,0.038-20.117,3.838-21.528,11.657c-0.619,3.431,2.435,7.195,9.076,11.188c0.043,0.026,0.077,0.064,0.098,0.109
		c0.311,0.669,30.934,67.211,24.839,92.866c0.677,2.016,10.36,31.094,7.131,35.489c-0.186,1.41-3.007,25.664,16.611,42.895
		c0.021,0.018,0.038,0.04,0.052,0.063c0.039,0.068,3.953,6.943,5.438,15.382c1.961,11.142-1.169,19.975-9.05,25.557l6.588,17.771
		c0.02,0.052,0.021,0.107,0.005,0.16c-0.384,1.246-9.43,30.329-18.708,35.001c1.823,3.772,25.85,52.987,37.894,52.987
		c0.187,0,0.37-0.012,0.551-0.037c0.133-0.012,0.25,0.067,0.278,0.192l3.988,17.618l3.665-1.521c0.067-0.03,0.145-0.025,0.211,0.009
		c0.065,0.033,0.112,0.095,0.129,0.166l3.771,16.631c0.019,0.082-0.005,0.167-0.062,0.228c-0.296,0.312-7.32,7.609-14.819,7.61
		c-0.625,0-1.243-0.053-1.839-0.156c-0.085-0.015-0.157-0.072-0.189-0.153l-1.941-4.845c-0.277-0.187-1.556-0.982-3.128-0.982
		c-1.478,0-2.792,0.688-3.908,2.044l0.768,7.132c0.009,0.084-0.025,0.167-0.092,0.221c-0.05,0.04-5.065,4.02-13.883,4.02
		c-6.832,0-14.081-2.323-21.546-6.907c-0.062-0.038-0.104-0.101-0.115-0.171l-5.041-29.821c-0.013-0.07,0.007-0.143,0.051-0.198
		l5.299-6.613l-16.591-54.297l-10.393,2.533c-0.116,0.027-0.229-0.026-0.282-0.129l-9.196-17.889l-4.401-0.895
		c-0.081-0.017-0.148-0.072-0.181-0.148l-5.561-13.271l-11.895,3.566c-0.08,0.027-0.169,0.006-0.233-0.049s-0.097-0.138-0.086-0.222
		c0.013-0.101,1.244-10.045-1.045-12.644c-0.431-0.488-0.943-0.662-1.583-0.539l-2.34,4.525c-0.033,0.063-0.093,0.11-0.163,0.128
		l-5.719,1.394c-0.078,0.02-0.16-0.001-0.221-0.053s-0.094-0.129-0.088-0.209c0.006-0.076,0.519-7.639-3.148-11.586
		c-2.072-2.23-5.119-2.902-9.011-1.983l-2.313,8.525c-0.024,0.088-0.093,0.156-0.182,0.178l-12.084,2.949l-0.979,6.822
		c-0.01,0.069-0.048,0.131-0.105,0.17c-0.056,0.04-0.128,0.055-0.196,0.039l-6.948-1.53l0.777,18.378
		c0.005,0.119-0.075,0.226-0.191,0.254l-10.375,2.532l1.83,8.075c0.016,0.069,0.001,0.142-0.04,0.2
		c-0.041,0.058-0.104,0.096-0.174,0.104l-10.637,1.272l0.958,4.205c0.03,0.133-0.052,0.266-0.184,0.299l-5.724,1.399
		c-0.119,0.028-0.236-0.029-0.286-0.138l-3.292-7.104c-3.396,0.735-9.273,5.355-8.377,18.036c0.009,0.132-0.086,0.248-0.217,0.266
		l-5.863,0.759c-0.084,0.006-0.164-0.021-0.219-0.082c-0.029-0.032-2.943-3.266-5.192-3.266c-0.135,0-0.267,0.012-0.392,0.036
		c-1.201,1.688-20.904,29.672-17.234,40.67c0.65,1.948,2.024,3.263,4.086,3.908c0.089,0.027,0.155,0.103,0.171,0.194l6.485,36.215
		c0.014,0.076-0.009,0.154-0.061,0.212c-0.207,0.229-20.856,22.901-36.785,22.902c-1.099,0-2.166-0.107-3.173-0.321
		c-0.112-0.023-0.193-0.119-0.198-0.233c-0.125-2.948-1.011-10.599-3.562-10.599c-1.168,0-3.27,1.603-6.641,9.236
		c-0.033,0.075-0.101,0.13-0.182,0.146c-0.009,0.001-0.236,0.044-0.603,0.044c-0.992,0-2.892-0.3-4.475-2.304
		c-2.306-2.92-4.195-10.008-0.108-27.185l-0.918-7.831c-0.008-0.067,0.012-0.136,0.056-0.188
		c0.143-0.173,14.229-17.326,11.998-22.06c-0.559-1.186-2.194-1.45-4.886-0.805c-1.073,0.952-19.917,17.802-18.554,23.839
		c0.02,0.087-0.009,0.178-0.074,0.238l-4.994,4.592c-0.07,0.065-0.169,0.084-0.257,0.051c-0.122-0.046-12.24-4.591-16.479-4.591
		c-0.291,0-0.537,0.021-0.732,0.064c-0.938,0.646-18.442,12.842-16.377,21.953c0.038,1.583,0.678,37.401-6.949,41.725l1.449,17.701
		c0.007,0.083-0.028,0.163-0.092,0.216c-0.244,0.195-24.56,19.599-40.156,19.6c-1.093,0-2.135-0.096-3.096-0.284
		c-0.077-0.015-0.143-0.065-0.177-0.137c-0.034-0.07-0.033-0.153,0.003-0.224c1.42-2.743,4.865-10.257,3.768-12.06
		c-0.204-0.335-0.57-0.427-1.133-0.306c-0.618,0.57-7.017,6.563-6.973,10.274l0.058,4.035c0.001,0.08-0.036,0.156-0.101,0.204
		C164.43,702.501,164.377,702.518,164.324,702.518z"/>
	<path display="inline" fill="#E34398" d="M147.933,693.481c0.845,3.352,13.882,7.711,16.137,8.442l-0.053-3.688
		c-0.048-4.104,6.89-10.428,7.185-10.695c0.031-0.027,0.068-0.048,0.108-0.058c0.814-0.198,1.415-0.015,1.74,0.518
		c1.348,2.216-2.636,10.354-3.597,12.249c0.837,0.143,1.734,0.215,2.672,0.215c14.904-0.001,37.992-18.025,39.739-19.407
		l-1.452-17.731c-0.008-0.102,0.045-0.197,0.136-0.243c7.508-3.796,6.839-40.924,6.831-41.299
		c-2.18-9.596,15.859-21.933,16.628-22.453c0.024-0.017,0.052-0.028,0.081-0.036c0.241-0.059,0.542-0.089,0.894-0.089
		c4.126,0,15.056,4.025,16.511,4.568l4.778-4.393c-1.148-6.575,17.966-23.498,18.786-24.221c0.03-0.026,0.066-0.046,0.106-0.056
		c2.997-0.73,4.842-0.369,5.517,1.063c2.306,4.894-10.799,21.048-11.997,22.508l0.91,7.77c0.003,0.029,0.002,0.059-0.005,0.087
		c-4.054,17.015-2.236,23.967,0.004,26.803c1.452,1.839,3.181,2.113,4.082,2.113c0.165,0,0.296-0.01,0.384-0.02
		c2.807-6.329,5.111-9.406,7.041-9.406c3.33,0,3.97,9.353,4.052,10.882c0.917,0.181,1.885,0.271,2.881,0.271
		c15.202-0.001,34.892-21.083,36.331-22.647l-6.437-35.946c-2.143-0.711-3.578-2.116-4.267-4.18
		c-3.846-11.527,16.491-39.991,17.358-41.197c0.035-0.049,0.086-0.083,0.144-0.098c0.189-0.046,0.391-0.069,0.598-0.069
		c2.266,0,4.945,2.763,5.476,3.335l5.501-0.712c-0.849-13.116,5.497-17.749,8.992-18.365c0.116-0.021,0.224,0.039,0.27,0.141
		l3.289,7.095l5.285-1.292l-0.966-4.235c-0.016-0.069-0.001-0.142,0.039-0.199c0.041-0.059,0.104-0.097,0.175-0.104l10.637-1.272
		l-1.823-8.045c-0.03-0.134,0.052-0.267,0.185-0.299l10.416-2.542l-0.782-18.498c-0.003-0.078,0.03-0.152,0.089-0.202
		s0.14-0.069,0.214-0.053l7.002,1.543l0.964-6.724c0.015-0.102,0.089-0.184,0.188-0.208l12.105-2.954l2.313-8.526
		c0.024-0.088,0.094-0.156,0.182-0.178c4.148-1.012,7.416-0.299,9.64,2.097c3.404,3.666,3.363,10.059,3.298,11.621l5.281-1.287
		l2.342-4.528c0.033-0.063,0.093-0.11,0.163-0.128c0.866-0.212,1.61,0.019,2.186,0.671c2.198,2.495,1.423,10.752,1.211,12.656
		l11.745-3.521c0.128-0.038,0.253,0.025,0.303,0.143l5.597,13.356l4.389,0.893c0.074,0.016,0.138,0.063,0.173,0.131l9.161,17.82
		l10.431-2.543c0.131-0.031,0.26,0.043,0.299,0.17l16.698,54.649c0.024,0.079,0.008,0.165-0.044,0.229l-5.311,6.628l5.003,29.6
		c7.351,4.494,14.479,6.773,21.188,6.773c7.931,0,12.703-3.268,13.462-3.827l-0.764-7.096c-0.007-0.065,0.013-0.131,0.054-0.183
		c1.23-1.533,2.698-2.311,4.363-2.311c1.941,0,3.419,1.072,3.48,1.118c0.037,0.027,0.066,0.065,0.084,0.108l1.917,4.784
		c0.524,0.084,1.067,0.126,1.616,0.126c6.831-0.001,13.504-6.493,14.364-7.359l-3.675-16.209l-3.666,1.521
		c-0.066,0.03-0.145,0.025-0.211-0.009c-0.065-0.033-0.112-0.095-0.129-0.166l-4.004-17.69c-0.129,0.011-0.26,0.017-0.391,0.017
		c-12.774,0-37.41-51.312-38.453-53.497c-0.029-0.061-0.032-0.13-0.01-0.192c0.023-0.063,0.07-0.114,0.131-0.143
		c8.923-4.1,18.095-32.973,18.644-34.723l-6.626-17.872c-0.04-0.106-0.002-0.227,0.092-0.292
		c9.889-6.894,10.354-17.493,9.002-25.171c-1.416-8.043-5.056-14.644-5.359-15.185c-20.283-17.847-16.774-43.126-16.736-43.38
		c0.007-0.043,0.024-0.084,0.052-0.119c3.236-4.041-7.088-34.831-7.193-35.141c-0.015-0.045-0.017-0.093-0.006-0.139
		c6.039-25.069-23.605-90.033-24.758-92.54c-6.791-4.096-9.901-8.021-9.244-11.665c1.454-8.056,20.611-11.811,21.89-12.052
		c19.667-10.812,24.086-28.599,24.327-41.62c0.247-13.277-3.67-24.424-4.187-25.833l-2.756-0.179
		c-0.107-0.007-0.199-0.083-0.226-0.188l-5.015-19.645l-8.816,3.019c-0.067,0.023-0.14,0.017-0.203-0.018
		c-0.062-0.035-0.106-0.094-0.122-0.164l-0.574-2.556c-1.384-6.107-21.917-11.139-25.139-11.892l1.955,6.276
		c0.038,0.121-0.021,0.251-0.137,0.303c-0.116,0.052-0.252,0.009-0.316-0.101c-0.882-1.069-21.749-2.91-34.899-3.834l0.438,6.803
		c0.004,0.068-0.019,0.134-0.064,0.185c-0.046,0.05-0.11,0.08-0.178,0.082c-15.34,0.445-27.115,8.786-30.795,11.719
		c7.869-3.044,13.474-2.981,16.38,0.124c1.851,1.978,2.048,4.569,2.055,5.502c12.995-3.668,21.674-5.527,25.801-5.527
		c1.783,0,2.747,0.349,2.946,1.067c0.327,1.182-1.825,2.999-3.598,4.261c3.048-1.051,6.512-1.582,10.335-1.582
		c18.606,0,40.382,12.594,40.6,12.722c0.038,0.022,0.069,0.053,0.091,0.091c7.046,12.224,8.396,22.915,4.013,31.776
		c-9.159,18.518-40.63,22.807-40.946,22.849c-0.086,0.012-0.171-0.023-0.226-0.089c-21.881-26.583-108.578-27.184-109.452-27.187
		c-2.364,0.349-4.876,0.527-7.43,0.527c-19.875,0-40.89-10.808-55.018-19.874c-15.296-9.815-26.042-19.762-26.149-19.861
		c-11.91-9.134-24.949-13.773-38.737-13.773c-34.268,0-62.331,28.807-62.61,29.098c-0.017,0.017-0.036,0.032-0.057,0.044
		c-14.269,8.124-29.212,44.492-29.362,44.858l-1.896,10.541c-0.008,0.043-0.027,0.083-0.055,0.117
		c-33.302,39.447-42.785,78.565-44.875,104.435c-2.266,28.034,3.418,46.983,3.476,47.171c0.02,0.062,0.013,0.13-0.017,0.188
		l-13.131,25.368l4.424,8.24c0.035,0.066,0.04,0.144,0.011,0.213l-22.739,55.426l0.979,4.345l3.575,4.471
		c0.049,0.062,0.066,0.142,0.047,0.218l-3.625,14.342l1.557,14.425c0.014,0.125-0.067,0.24-0.189,0.271
		c-10.578,2.577-10.653,35.664-10.629,39.209c0.332-0.061,0.669-0.092,1.006-0.092c7.762,0,14.483,16.021,14.766,16.702
		c0.023,0.056,0.025,0.116,0.007,0.173c-3.461,10.602-5.311,26.085,5.537,39.648c6.498,8.124,14.59,11.751,14.67,11.787
		c0.057,0.024,0.103,0.07,0.128,0.127l3.491,7.853l31.414,21.764l2.711-5.674l-8.421-7.237c-0.071-0.061-0.102-0.156-0.08-0.248
		c0.022-0.091,0.093-0.162,0.184-0.185l2.451-0.598c0.144-0.034,0.306-0.052,0.483-0.052c2.774,0,9.437,4.358,10.234,4.886
		l6.628-0.304l13.22-17.321c3.592-6.062-5.593-17.089-5.687-17.199l-15.394-15.025l-13.391,1.261
		c-1.747-0.231-2.943-0.972-3.611-2.201c-1.705-3.136,0.594-8.366,0.873-8.978l0.024-18.854c0-0.069,0.029-0.136,0.079-0.183
		s0.117-0.065,0.187-0.067c3.956,0.233,9.146-8.066,9.703-8.98l-4.957-25.684c-0.013-0.065,0.001-0.133,0.04-0.188
		c2.974-4.344,9.659-6.547,19.869-6.547c9.974,0,19.848,2.183,19.947,2.204c0.113,0.025,0.194,0.126,0.195,0.242
		s-0.078,0.218-0.191,0.245c-2.822,0.688-1.518,20.173,0.061,33.256l7.407-0.496c0.093-0.021,0.188,0.042,0.234,0.126
		c0.047,0.084,0.042,0.188-0.013,0.267l-4.362,6.224l6.11,1.707c0.12,0.034,0.196,0.149,0.181,0.273
		c-0.538,4.2,11.658,9.79,14.06,10.849c-0.396-6.168,15.938-21.365,16.65-22.025c0.041-0.038,0.093-0.061,0.149-0.065
		c0.02-0.002,2.043-0.171,3.794-0.171c2.269,0,2.774,0.263,2.833,0.657c0.058,0.385-0.223,0.902-4.317,2.166
		c-9.874,3.042-8.439,46.591-8.328,49.587l14.069,5.875c0.262-0.06,0.503-0.089,0.718-0.089c0.776,0,1.135,0.39,1.299,0.717
		c2.939,5.843-30.586,51.107-32.015,53.032c-0.035,0.047-0.085,0.08-0.142,0.094c-1.829,0.442-1.482,6.526-1.195,8.833
		c0.016,0.126-0.065,0.244-0.188,0.274l-2.45,0.602C151.047,666.612,148.9,683.133,147.933,693.481z"/>
	<path display="inline" fill="#E34398" d="M696.487,527.662c109.53-137.018,159.951-334.323,67.805-449.42
		C710.005,10.435,598.556,12.643,492.765,63.81c-6.205,3-12.391,6.17-18.546,9.505c-51.084,27.674-99.955,66.668-139.362,114.542
		c-93.208,113.245-146.816,318.375-88.654,422.066c11.271,20.094,26.739,36.381,46.928,47.448
		C413.095,723.141,608.712,637.463,696.487,527.662z"/>
	<path display="inline" fill="#E34398" d="M390.803,680.566c-0.009,0-0.013,0-0.022,0c-37.074-0.004-69.968-7.733-97.771-22.977
		c-19.505-10.692-35.327-26.688-47.026-47.545c-14.031-25.014-22.046-56.599-23.824-93.878
		c-1.665-34.903,2.158-73.174,11.362-113.75c8.817-38.873,22.564-78.821,39.755-115.525c17.498-37.36,38.725-71.661,61.387-99.195
		c37.969-46.126,86.185-85.756,139.436-114.603c6.137-3.325,12.38-6.524,18.557-9.51c50.779-24.56,101.861-37.542,147.724-37.542
		c53.934,0,96.849,17.997,124.107,52.043c22.231,27.769,36.946,61.287,43.733,99.623c6.348,35.854,5.689,75.242-1.956,117.068
		c-7.306,39.963-20.693,80.725-39.791,121.151c-18.839,39.879-42.319,77.524-69.791,111.89
		c-33.014,41.297-81.465,79.519-136.43,107.623C503.343,664.54,443.163,680.566,390.803,680.566z"/>
	<path display="inline" fill="#E34398" d="M640.38,26.542c-45.787,0-96.794,12.965-147.507,37.492
		c-6.169,2.982-12.405,6.179-18.535,9.5c-53.195,28.817-101.36,68.404-139.289,114.481c-22.635,27.501-43.839,61.766-61.32,99.089
		c-17.175,36.672-30.911,76.585-39.72,115.423c-9.194,40.532-13.012,78.757-11.35,113.616c1.774,37.201,9.768,68.712,23.761,93.657
		c11.652,20.772,27.408,36.704,46.83,47.352c27.728,15.201,60.542,22.91,97.53,22.914c0.006,0,0.017,0,0.023,0
		c52.283,0.001,112.378-16.005,169.221-45.07c54.903-28.073,103.298-66.247,136.268-107.49
		c27.447-34.335,50.908-71.947,69.73-111.792c19.078-40.387,32.452-81.106,39.75-121.028c7.636-41.768,8.294-81.095,1.956-116.891
		c-6.772-38.252-21.452-71.694-43.632-99.397C736.937,44.474,694.156,26.542,640.38,26.542z"/>
</g>
<g id="Layer_1">
	<g id="XMLID_15_">
		<g>
			<path fill="#333333" d="M592.797,140.143l-3.257,0.11c9.06-1.632,48.059-48.688,56.286-58.719
				c6.542-4.949,2.023-14.362,2.023-14.362c-34.782-44.774-191.629,17.45-191.629,17.45l0.031,0.125
				c-1.663,0.472-2.903,0.832-3.666,1.054c7.153-4.385,14.369-8.549,21.633-12.483c6.155-3.334,12.341-6.505,18.546-9.505
				c31.698-15.331,63.903-26.267,94.926-32.239c44.268-1.651,184.273,5.661,222.289,159.426
				c5.898,46.739,0.212,97.595-14.534,148.25l-0.267-0.085c7.825-81.322-30.435-169.041-30.435-169.041
				c-35.495-70.015-107.673-55.147-145.793-41.062c-15.111,5.582-24.87,11.04-24.87,11.04L592.797,140.143z"/>
			<path fill="#010101" d="M764.292,78.244c25.774,32.193,40.393,70.816,45.688,112.754
				C771.964,37.234,631.958,29.922,587.69,31.573C660.21,17.606,726.27,30.753,764.292,78.244z"/>
			<path fill="#FFFFFF" d="M618.96,129.082c0.753-0.237,102.91-32.766,145.784,41.041c0,0,38.26,87.718,30.435,169.041l0.267,0.085
				c-19.322,66.391-54.206,132.435-98.958,188.416c-33.822,42.311-83.657,81.036-139.008,108.899l-0.064-0.141
				c-4.414,1.358-8.758,2.652-13.036,3.89l-0.052-0.201c-272.435,71.872-271.275-102.327-271.275-102.327s-0.079,0.091-0.238,0.249
				c0.043-1.108,0.096-2.004,0.145-2.658C361.738,334.878,579.3,151.402,592.797,140.143l1.284-0.042c0,0,9.759-5.458,24.87-11.04
				L618.96,129.082z"/>
			<path fill="#010101" d="M618.951,129.061c38.12-14.085,110.298-28.953,145.793,41.062
				c-42.874-73.806-145.031-41.278-145.784-41.041L618.951,129.061z"/>
			<path fill="#010101" d="M647.85,67.171c0,0,4.519,9.414-2.023,14.362c0.982-1.2,1.527-1.87,1.527-1.87
				c-11.369-43.608-162.771-2.939-191.102,5.083l-0.031-0.125C456.221,84.621,613.067,22.396,647.85,67.171z"/>
			<path fill="#FFFFFF" d="M645.826,81.533c-8.228,10.032-47.227,57.087-56.286,58.719l3.257-0.11
				C579.3,151.402,361.738,334.878,272.959,535.375c0.061-0.844,0.11-1.291,0.11-1.291c-2.884,3.407-5.73,5.963-8.515,7.806
				c-7.816,1.34-21.334-1.088-41.804-19.787c-7.199-107.574,40.897-247.726,112.107-334.244
				c33.805-41.068,74.575-75.604,117.729-102.059c0.763-0.222,2.003-0.582,3.666-1.054c28.331-8.022,179.732-48.691,191.102-5.083
				C647.354,79.663,646.809,80.333,645.826,81.533z"/>
			<path fill="#333333" d="M557.415,636.423l0.064,0.141c-88.289,44.441-190.612,61.234-264.349,20.81
				c-20.12-11.031-35.553-27.245-46.812-47.244l0.321-0.201c6.066-23.597,14.442-47.223,24.598-70.627
				c0.78-0.527,1.301-0.996,1.577-1.268c-1.058,26.88,4.327,179.594,271.565,102.279
				C548.657,639.075,553.001,637.781,557.415,636.423z"/>
			<path fill="#010101" d="M544.327,640.111l0.052,0.201c-267.238,77.314-272.623-75.399-271.565-102.279
				c0.159-0.158,0.238-0.249,0.238-0.249S271.892,711.983,544.327,640.111z"/>
			<path fill="#E4218E" d="M273.069,534.084c0,0-0.049,0.447-0.11,1.291c-0.58,1.307-1.154,2.616-1.722,3.926
				c-1.385,0.935-3.588,2.059-6.684,2.589C267.339,540.047,270.185,537.491,273.069,534.084z"/>
			<path fill="#E4218E" d="M272.959,535.375c-0.049,0.654-0.102,1.55-0.145,2.658c-0.275,0.271-0.797,0.74-1.577,1.268
				C271.805,537.991,272.379,536.682,272.959,535.375z"/>
			<path fill="#E4218E" d="M264.554,541.89c3.096-0.53,5.298-1.654,6.684-2.589c-10.156,23.404-18.531,47.03-24.598,70.627
				l-0.321,0.201c-0.041-0.067-0.079-0.138-0.116-0.204c-13.5-24.068-20.98-53.606-23.339-86.189
				C228.396,532.552,244.979,554.832,264.554,541.89z"/>
			<path fill="#010101" d="M222.75,522.103c20.47,18.699,33.988,21.127,41.804,19.787c-19.575,12.942-36.158-9.338-41.691-18.154
				C222.825,523.19,222.784,522.648,222.75,522.103z"/>
		</g>
		<g>
			<path fill="none" stroke="#010101" stroke-width="0.5" stroke-linecap="round" stroke-linejoin="round" d="M544.327,640.111
				c-272.435,71.872-271.275-102.327-271.275-102.327s-0.079,0.091-0.238,0.249c-0.275,0.271-0.797,0.74-1.577,1.268
				c-1.385,0.935-3.588,2.059-6.684,2.589c-7.816,1.34-21.334-1.088-41.804-19.787c-0.611-0.56-1.229-1.136-1.855-1.724
				c0,0,0.69,1.319,1.968,3.356c5.533,8.816,22.116,31.097,41.691,18.154c2.785-1.843,5.631-4.398,8.515-7.806
				c0,0-0.049,0.447-0.11,1.291c-0.049,0.654-0.102,1.55-0.145,2.658c-1.058,26.88,4.327,179.594,271.565,102.279
				c4.278-1.237,8.622-2.531,13.036-3.89"/>
			<path fill="none" stroke="#989898" stroke-width="10" stroke-linecap="round" d="M557.479,636.563
				c55.351-27.863,105.186-66.589,139.008-108.899c44.752-55.981,79.636-122.025,98.958-188.416
				c14.746-50.655,20.433-101.511,14.534-148.25c-5.295-41.938-19.913-80.561-45.688-112.754
				C726.27,30.753,660.21,17.606,587.69,31.573c-31.022,5.972-63.228,16.908-94.926,32.239c-6.205,3-12.391,6.17-18.546,9.505
				c-7.264,3.935-14.479,8.098-21.633,12.483c-43.155,26.456-83.924,60.991-117.729,102.059
				c-71.21,86.518-119.306,226.669-112.107,334.244c0.035,0.546,0.076,1.088,0.113,1.633c2.359,32.583,9.839,62.121,23.339,86.189
				c0.038,0.066,0.075,0.137,0.116,0.204c11.259,19.999,26.692,36.213,46.812,47.244
				C366.868,697.798,469.19,681.005,557.479,636.563z"/>
			<path fill="none" stroke="#989898" stroke-width="5" stroke-linecap="round" d="M246.64,609.928
				c6.066-23.597,14.442-47.223,24.598-70.627c0.568-1.31,1.142-2.619,1.722-3.926C361.738,334.878,579.3,151.402,592.797,140.143
				c0.436-0.365,0.658-0.548,0.658-0.548s1.826-1.23,4.635-3.454"/>
			<path fill="none" stroke="#010101" stroke-width="0.5" stroke-linecap="round" stroke-linejoin="round" d="M618.957,129.085
				c0,0,0,0,0.003-0.003c0.753-0.237,102.91-32.766,145.784,41.041"/>
		</g>
	</g>
	<g id="XMLID_14_">
		<g>
			<path fill="#FFFFFF" d="M553.827,288.56c-1.176,10.372-2.574,22.853-4.071,36.55l-0.141-0.019c0,0-104.485,85.961-157.027,89.698
				c35.289-13.243,89.16-46.22,160.52-126.118L553.827,288.56z"/>
			<path fill="#FFFFFF" d="M619.42,383.628l0.028,0.571l-8.578,0.566c-0.842-26.518,0.575-44.555,2.976-56.812
				C620.708,330.332,619.42,383.628,619.42,383.628z"/>
			<path fill="#858688" d="M787.82,360.95l-114.571-85.789c-0.622-1.289-1.226-2.141-1.81-2.509l-4.227-2.404l0.207-4.447
				l123.957,85.155l-3.477,10.052L787.82,360.95z"/>
			<path fill="#676767" d="M787.82,360.95l-3.112,9.804L676.882,286.67c-0.319-1.315-0.637-2.551-0.951-3.705
				c-0.92-3.368-1.817-6.01-2.682-7.804L787.82,360.95z"/>
			<path fill="#858688" d="M774.277,398.468l-5.51,10.658l-83.117-72.621c-0.582-4.043-1.164-7.978-1.749-11.776L774.277,398.468z"
				/>
			<path fill="#676767" d="M768.768,409.125l-3.477,10.354l-77.715-69.186c-0.636-4.708-1.279-9.318-1.926-13.789L768.768,409.125z"
				/>
			<path fill="#676767" d="M687.576,350.293l-40.308-35.886c-3.466-6.747-7.91-11.415-13.612-12.122l-20.973-18.672l12.309-0.107
				l60.658,52.999C686.297,340.975,686.94,345.585,687.576,350.293z"/>
			<path fill="#858688" d="M685.65,336.504l-60.658-52.999l8.294-0.072l50.615,41.295
				C684.486,328.527,685.068,332.461,685.65,336.504z"/>
			<path fill="#999999" d="M683.901,324.729l-50.615-41.295l39.004-0.344l4.592,3.582
				C679.139,295.954,681.518,309.211,683.901,324.729z"/>
			<path fill="#999999" d="M581.276,226.208l97.205,2.396c-1.871,0-3.446,0.791-4.746,1.954l-0.186-0.352l-92.978,1.606
				L581.276,226.208z"/>
			<path fill="#676767" d="M676.882,286.67l-4.592-3.582l3.373-0.029l0.268-0.094C676.245,284.119,676.562,285.355,676.882,286.67z"
				/>
			<path fill="#676767" d="M675.931,282.966l-0.268,0.094l-3.373,0.029l-17.099-13.333l2.159-0.307v-6.192l9.703,7.268l6.195,4.638
				C674.113,276.956,675.011,279.598,675.931,282.966z"/>
			<path fill="#CDCCCC" d="M651.716,259.037l-0.002,8.01l0.001,3.203l3.477-0.494l17.099,13.333l-39.004,0.344l-28.764-23.471
				l-0.001-7.329l-7.04,1.602l-0.186,4.003h-1.223l1.174,1.028l-0.472,10.185l15.908,14.161l-28.443,0.252
				c0.476-7.353,0.905-11.704,1.267-12.011l-0.703-20.021l83.11-2.407l0.261,0.016l-0.755,16.359l-10.069-6.915l-0.001-6.256
				l-5.634,1.602V259.037z M638.335,269.449l-0.001-15.216l-21.835,0.001l1.409,15.216L638.335,269.449z"/>
			<polygon fill="#999999" points="668.62,239.818 668.175,249.443 667.914,249.427 584.804,251.833 584.435,241.392 			"/>
			<path fill="#010101" d="M661.584,400.78l7.052,110.51l-44.375-4.802l-0.002-4.006c1.321-10.527-6.056-90.978-6.96-100.733
				C624.217,398.028,640.545,391.811,661.584,400.78z"/>
			<polygon fill="#858688" points="667.42,265.802 667.213,270.249 667.054,270.523 657.351,263.256 657.351,258.887 			"/>
			<path fill="#010101" d="M659.473,381.56l-40.024,2.64l-0.028-0.571c0,0,1.288-53.296-5.574-55.674
				c5.647-28.826,16.744-25.672,16.744-25.672c1.059-0.123,2.08-0.121,3.066,0.002l13.612,12.122
				C658.702,336.667,659.473,381.56,659.473,381.56z"/>
			<polygon fill="#676767" points="657.351,263.256 657.351,269.448 655.191,269.755 651.717,267.046 651.714,267.046 
				651.716,259.037 			"/>
			<polygon fill="#858688" points="657.351,258.887 657.351,263.256 651.716,259.037 655.237,257.435 			"/>
			<polygon fill="#010101" points="657.35,252.63 657.351,258.887 655.237,257.435 651.716,259.037 651.716,254.232 			"/>
			<polygon fill="#010101" points="655.191,269.755 651.715,270.249 651.714,267.046 651.717,267.046 			"/>
			<path fill="#999999" d="M647.269,314.407l40.308,35.886c9.642,71.032,18.392,164.999,18.392,164.999l-37.332-4.002l-7.052-110.51
				c-21.039-8.97-37.367-2.752-44.285,0.969c-2.348,1.265-3.61,2.239-3.61,2.239l2.122,113.711l-40.148,5.607
				c0,0,5.346-189.361,8.578-239.441l28.443-0.252l20.973,18.672c-0.986-0.123-2.008-0.125-3.066-0.002
				c0,0-11.097-3.154-16.744,25.672c-2.4,12.257-3.817,30.294-2.976,56.812l8.578-0.566l40.024-2.64
				C659.473,381.56,658.702,336.667,647.269,314.407z"/>
			<path fill="#676767" d="M647.269,314.407l-13.612-12.122C639.358,302.992,643.803,307.66,647.269,314.407z"/>
			<polygon fill="#010101" points="638.334,254.233 638.335,269.449 617.908,269.45 616.499,254.234 			"/>
			<polygon fill="#858688" points="604.522,259.962 633.286,283.433 624.992,283.505 604.524,265.624 			"/>
			<polygon fill="#676767" points="624.992,283.505 612.684,283.613 596.775,269.452 604.525,269.451 604.524,265.624 			"/>
			<polygon fill="#858688" points="604.524,265.624 597.247,259.267 597.296,258.239 602.409,258.238 604.522,259.962 			"/>
			<polygon fill="#676767" points="597.247,259.267 604.524,265.624 604.525,269.451 596.775,269.452 			"/>
			<polygon fill="#010101" points="604.521,252.633 604.522,259.962 602.409,258.238 597.296,258.239 597.481,254.235 			"/>
			<path fill="#676767" d="M555.385,274.937c1.209-10.484,1.945-16.695,1.945-16.695c0.303-1.103,0.47-2.191,0.523-3.265
				l26.95-3.143l0.703,20.021c-0.361,0.307-0.791,4.658-1.267,12.011h-0.139l-30.274,4.694
				C554.404,283.478,554.93,278.9,555.385,274.937z M579.168,271.054l-0.705-16.017l-16.904,3.204l0.003,16.818L579.168,271.054z"/>
			<path fill="#333333" d="M584.804,251.833l-26.95,3.143c0.129-2.562-0.399-5.023-1.294-7.297l26.126-6.255l1.749-0.032
				L584.804,251.833z"/>
			<path fill="#676767" d="M584.099,231.813l0.336,9.579l-1.749,0.032l-26.126,6.255c-1.7-4.334-4.733-7.994-7.103-10.396
				l31.115-5.471H584.099z"/>
			<path fill="#333333" d="M534.749,500.066c0.002-3.547,0.109-7.748,0.309-12.494c1.468-34.914,7.89-99.367,13.462-151.073
				c0.42-3.873,0.833-7.676,1.236-11.389c1.497-13.698,2.896-26.178,4.071-36.55l30.274-4.694h0.139
				c-3.232,50.081-8.578,239.441-8.578,239.441l-40.152-12.009C534.981,509.272,534.744,505.41,534.749,500.066z M560.16,429.614
				c0,0,7.04-75.276,2.814-76.077c0,0-2.823-24.825-7.747,76.078L560.16,429.614z M560.87,485.674c0,0,2.812-49.653-3.529-44.849
				c0,0-4.224-12.812-4.925,43.244L560.87,485.674z"/>
			<path fill="#CDCCCC" d="M584.099,231.813h-3.526l92.978-1.606l0.186,0.352c-3.597,3.211-5.115,9.259-5.115,9.259l-84.186,1.574
				L584.099,231.813z"/>
			<path fill="#333333" d="M581.276,226.208l-0.704,5.605l-31.115,5.471c-1.915-1.943-3.396-3.066-3.396-3.066L581.276,226.208z"/>
			<polygon fill="#010101" points="578.463,255.037 579.168,271.054 561.562,275.059 561.559,258.241 			"/>
			<path fill="#010101" d="M562.975,353.538c4.226,0.801-2.814,76.077-2.814,76.077l-4.933,0.001
				C560.151,328.713,562.975,353.538,562.975,353.538z"/>
			<path fill="#010101" d="M557.341,440.825c6.341-4.805,3.529,44.849,3.529,44.849l-8.454-1.604
				C553.117,428.014,557.341,440.825,557.341,440.825z"/>
			<path fill="#CDCCCC" d="M379.02,419.224c-23.692,6.535-35.803,3.194-35.803,3.194c-71.845-16.013-100.566-100.733-90.625-82.576
				c0.374,0.678,0.744,1.342,1.115,2.007c34.558,61.593,78.945,71.762,78.945,71.762c92.324,23.055,220.924-136.424,222.733-138.674
				c-0.455,3.963-0.98,8.541-1.558,13.623l-0.719,0.112c-71.36,79.898-125.231,112.875-160.52,126.118
				C387.71,416.624,383.184,418.076,379.02,419.224z"/>
			<path fill="#676767" d="M549.615,325.091l0.141,0.019c-0.403,3.713-0.816,7.517-1.236,11.389l-0.155-0.021
				c-81.725,79.375-156.156,82.801-169.345,82.746c4.165-1.148,8.69-2.6,13.569-4.434
				C445.13,411.053,549.615,325.091,549.615,325.091z"/>
			<path fill="#999999" d="M534.6,487.549l0.458,0.023c-0.199,4.746-0.307,8.947-0.309,12.494L233.752,402.58l2.319-6.094
				L534.6,487.549z"/>
		</g>
		<g>
		</g>
	</g>
	<g>
		<g id="XMLID_12_">
			<g>
				<path fill="#E34398" d="M192.866,303.217c3.278,2.495,43.168,33.354,38.215,55.27c0,0-8.67,26.413,15.328,33.389
					c0,0,27.042,20.405,43.197-18.627L192.866,303.217z M251.206,473.208c13.879-3.382,16.172-16.087,16.172-16.087l-10.768,1.945
					C265.16,462.981,251.551,472.953,251.206,473.208z M493.509,159.196c0,0,18.102,46.892-20.233,67.93
					c0,0-39.161,7.298-12.535,23.305c0,0,31.024,66.958,24.806,92.773c0,0,10.511,31.184,7.151,35.377
					c0,0-3.768,25.218,16.686,43.183c0,0,15.656,27.229-3.696,40.721l6.655,17.952c0,0-9.438,30.654-18.803,34.957
					c0,0,26.262,55.024,38.812,53.315l4.054,17.907l3.939-1.635l3.771,16.631c0,0-8.35,8.784-16.434,7.38l-1.97-4.915
					c0,0-4.134-3.048-7.5,1.147l0.778,7.235c0,0-13.112,10.62-35.141-2.906l-5.041-29.821l5.381-6.716l-16.698-54.649l-10.622,2.589
					l-9.252-17.995l-4.519-0.919l-5.647-13.479l-12.11,3.631c0,0,1.857-14.628-3.045-13.433l-2.394,4.629l-5.719,1.394
					c0,0,1.277-17.186-12.611-13.797l-2.352,8.669l-12.249,2.989l-1.002,6.99l-7.266-1.601l0.791,18.703l-10.615,2.591l1.885,8.315
					l-10.913,1.306l1.021,4.476l-5.724,1.399l-3.375-7.281c0,0-9.943,1.753-8.771,18.337l-5.863,0.759c0,0-3.467-3.885-5.918-3.287
					c0,0-28.851,40.105-13.075,45.04l6.485,36.215c0,0-23.425,25.953-39.72,22.505c0,0-0.996-23.387-10.681-1.452
					c0,0-12.399,2.352-4.885-29.184l-0.923-7.875c0,0,22.313-27.033,6.8-23.252c0,0-20.123,17.724-18.679,24.122l-4.994,4.592
					c0,0-14.133-5.321-17.401-4.524c0,0-18.692,12.65-16.519,22.241c0,0,0.767,37.616-6.968,41.526l1.463,17.864
					c0,0-27.703,22.271-43.047,19.266c0,0,7.196-13.899,2.292-12.709c0,0-7.15,6.468-7.103,10.506
					c0.058,4.036,0.058,4.036,0.058,4.036s-15.78-4.93-16.645-8.769c0,0,2.516-26.938,4.962-27.529
					c2.45-0.602,2.45-0.602,2.45-0.602s-1.062-8.512,1.384-9.107c0,0,41.609-56.036,30.176-53.249l-14.291-5.968
					c0,0-1.979-46.767,8.498-49.995c10.481-3.233-2.215-2.164-2.215-2.164s-17.816,16.491-16.511,22.248
					c0,0-15.242-6.41-14.617-11.287l-6.45-1.803l4.564-6.513l-7.643,0.513c0,0-3.985-32.77,0.1-33.765c0,0-31.787-7.107-39.555,4.24
					l4.975,25.777c0,0-5.613,9.468-9.983,9.184l-0.024,18.91c0,0-4.653,9.903,2.465,10.874l13.506-1.271l15.493,15.124
					c0,0,9.436,11.2,5.694,17.512l-13.291,17.414l-6.826,0.313c0,0-8.136-5.438-10.588-4.845c-2.451,0.598-2.451,0.598-2.451,0.598
					l8.566,7.362l-2.92,6.111l-31.713-21.971l-3.519-7.917c0,0-32.558-14.336-20.344-51.741c0,0-7.611-18.386-15.788-16.397
					c0,0-0.627-36.972,10.817-39.761l-1.562-14.47l3.637-14.386l-3.61-4.516l-1.009-4.479l22.769-55.499l-4.487-8.356l13.191-25.485
					c0,0-23.118-75.36,41.447-151.84l1.91-10.59c0,0,14.961-36.721,29.47-44.981c0,0,51.611-53.752,101.698-15.334
					c0,0,48.373,45.005,88.428,39.14c0,0,87.434,0.296,109.644,27.278c0,0,63.282-8.222,36.749-54.252
					c0,0-33.318-19.465-53.055-10.177c0.698-0.422,22.01-13.433-23.161-0.646c0,0,0.917-13.728-19.551-5.135
					c0,0,13.318-12.246,32.162-12.792l-0.457-7.088c0,0,34.453,2.408,35.382,3.977l-2.085-6.691c0,0,24.204,5.351,25.751,12.178
					l0.574,2.556l9.072-3.106l5.082,19.907L493.509,159.196z M531.642,580.996l-0.029-2.693c0.029,2.693-40.639,5.854-40.639,5.854
					c17.159,9.768,30.452,2.482,30.452,2.482l0.702-1.971L531.642,580.996z M371.479,311.604c2.345-8.671-2.648-4.075-2.648-4.075
					c0.1,8.071-41.076,24.181-41.076,24.181c-1.668,7.831-31.547,31.988-31.547,31.988c0.257,8.716,15.49,3.65,15.49,3.65
					l0.383-1.075l1.168,0.161c-0.5,1.544,2.964,1.843,2.964,1.843c24.608-9.376,12.609-28.052,12.609-28.052
					C363.956,331.666,371.479,311.604,371.479,311.604z M330.159,327.078c0,0,85.729-24.947,19.409-81.679
					c0,0-5.482-1.364-4.027,5.031c0,0,21.675,38.592-9.846,51.678c0,0,5.737,10.072-4.773,20.729L330.159,327.078z M337.762,243.394
					l-0.739-14.669l-12.73,8.502l-2.175-9.595l-8.842,2.83l-1.879-8.317l-8.025,2.631l-0.256-8.712l-10.186,4.512l-2.842-8.757
					l-5.429,2.673l-2.799-4.718l-7.204,2.426l-8.526-14.792l-5.416,14.145l-6.208-4.562l-3.307,8.23l-7.222-9.04l-2.49,8.032
					l-14.193-9.366l1.595,7.036l-5.864,0.754l-10.292-3.567l1.74,7.676l-6.924,2.268l-20.145-3.771l19.043,4.134l1.102-0.363
					L337.762,243.394z M298.853,379.806l4.459-3.148l-4.757,1.834L298.853,379.806l-83.251,58.728l27.463,10.852l33.736-10.921
					l-2.412-6.837l14.259-16.971l-1.358-9.794l13.295-17.419L298.853,379.806z M308.032,606.241c0,0,14.183-8.406,7.484-12.624
					c0,0-15.044,19.871-42.843,11.342c0,0,3.761,8.983,9.208,7.655L308.032,606.241z M238.204,484.994l5.817-4.792l-11.367-2.828
					l-0.71-0.979c0,0,0.138,0.304-0.063,0.784l-50.905-12.663c0,0,16.104,16.551,31.722,17.672c1.396,0.096,2.788,0.076,4.163-0.093
					c11.933-1.468,14.524-3.732,15.02-4.916l0.774,0.194L238.204,484.994z M213.943,357.682c0,0,4.169-34.022-38.656-35.281
					c0,0-5.184,2.46-0.546,4.336c0,0,23.586,2.649,21.505,10.356c0,0-9.501-11.486-19.466-3.059c0,0-15.158,10.898-1.409,22.542
					c0,0,12.505,4.454,15.97-8.99c0,0,7.724,5.317-5.155,14.455c0,0-4.051,5.789,4.906,3.007c0,0,11.935-6.504,10.216-12.39
					c0,0,3.569-1.167,1.719,5.885c0,0-7.355,18.29-14.271,23.278c0,0-2.152,2.324,8.247-0.817
					C197.002,381.002,214.844,361.656,213.943,357.682z M173.894,223.422c6.333-6.268,0.179-6.793,0.179-6.793
					C37.883,258.594,138.1,327.985,138.1,327.985c0.209-25.701,17.261-37.957,17.261-37.957
					C112.334,248.549,173.894,223.422,173.894,223.422z M233.736,488.108l-45.144-5.198
					C188.593,482.91,198.609,496.669,233.736,488.108z M223.631,454.278l-14.135-5.329c-6.541,1.598-1.335,13.149-1.335,13.149
					C217.729,462.472,223.631,454.278,223.631,454.278z M170.684,332.522c0,0,3.821-5.129-12.193,0.271
					c0,0-9.153,15.429,2.22,21.662c0,0,5.238,1.122,3.31-2.31C164.021,352.146,153.252,336.766,170.684,332.522z M203.878,671.678
					l0.733-6.933c-21.682,13.384-48.264,7.712-48.264,7.712l-4.861,3.885C163.061,684.321,203.878,671.678,203.878,671.678z
					 M150.784,464.45l-48.832-150.763l-8.697,3.469l3.954,9.836l-9.456,7.705l2.314,10.236l7.465,6.28l-4.823,28.17l8.285,17.556
					l9.423,41.573l10.917-1.311l5.636,13.477L150.784,464.45z M116.165,594.052c-1.066-4.681-7.577-3.099-7.599-3.094
					c0,0-10.263,31.404-21.013,34.82l-0.932,0.228c0.311-0.049,0.622-0.125,0.932-0.228l11.596-2.83
					C99.149,622.948,117.229,598.747,116.165,594.052z"/>
				<path fill="#E34398" d="M531.612,578.303l0.029,2.693l-9.514,3.673l-0.702,1.971c0,0-13.293,7.285-30.452-2.482
					C490.974,584.157,531.642,580.996,531.612,578.303z"/>
				<path fill="#FFFFFF" d="M368.831,307.528c0,0,4.993-4.596,2.648,4.075c0,0-7.522,20.062-42.656,28.621
					c0,0,11.999,18.675-12.609,28.052c0,0-3.464-0.299-2.964-1.843c0.166-0.513,0.776-1.166,2.094-1.995
					c0,0,17.104-8.223,9.448-19.177c0,0-13.542,8.696-10.99,16.178l-1.721,4.833l-0.383,1.075c0,0-15.232,5.066-15.49-3.65
					c0,0,29.879-24.157,31.547-31.988C327.754,331.709,368.93,315.6,368.831,307.528z"/>
				<path fill="#FFFFFF" d="M349.568,245.399c66.32,56.731-19.409,81.679-19.409,81.679l0.763-4.24
					c10.511-10.657,4.773-20.729,4.773-20.729c31.521-13.086,9.846-51.678,9.846-51.678
					C344.086,244.035,349.568,245.399,349.568,245.399z"/>
				<polygon fill="#E34398" points="337.023,228.724 337.762,243.394 207.548,219.014 214.472,216.746 212.731,209.07 
					223.024,212.637 228.888,211.882 227.293,204.846 241.487,214.212 243.977,206.18 251.199,215.22 254.506,206.989 
					260.714,211.551 266.129,197.407 274.655,212.199 281.859,209.773 284.659,214.491 290.088,211.817 292.93,220.575 
					303.115,216.063 303.372,224.775 311.397,222.145 313.276,230.461 322.119,227.631 324.293,237.226 				"/>
				<path fill="#E34398" d="M324.791,345.261c7.656,10.955-9.448,19.177-9.448,19.177c-1.318,0.83-1.929,1.482-2.094,1.995
					l-1.168-0.161l1.721-4.833C311.249,353.957,324.791,345.261,324.791,345.261z"/>
				<polygon fill="#010101" points="303.312,376.658 298.853,379.806 298.555,378.492 				"/>
				<polygon fill="#E34398" points="298.853,379.806 300.584,387.443 287.289,404.862 288.647,414.656 274.388,431.627 
					276.8,438.464 243.064,449.385 215.602,438.533 				"/>
				<path fill="#E34398" d="M192.866,303.217l96.741,70.031c-16.155,39.032-43.197,18.627-43.197,18.627
					c-23.998-6.977-15.328-33.389-15.328-33.389C236.035,336.571,196.145,305.712,192.866,303.217z"/>
				<path fill="#E34398" d="M315.516,593.617c6.698,4.218-7.484,12.624-7.484,12.624l-26.151,6.373
					c-5.447,1.328-9.208-7.655-9.208-7.655C300.472,613.488,315.516,593.617,315.516,593.617z"/>
				<path fill="#FFFFFF" d="M256.611,459.066l10.768-1.945c0,0-2.293,12.705-16.172,16.087
					C251.551,472.953,265.16,462.981,256.611,459.066z"/>
				<polygon fill="#010101" points="207.548,219.014 206.446,219.376 187.403,215.243 				"/>
				<polygon fill="#E34398" points="244.021,480.202 238.204,484.994 232.654,477.374 				"/>
				<path fill="#FFFFFF" d="M175.287,322.4c42.825,1.259,38.656,35.281,38.656,35.281c0.901,3.975-16.94,23.321-16.94,23.321
					c-10.398,3.142-8.247,0.817-8.247,0.817c6.916-4.988,14.271-23.278,14.271-23.278c1.85-7.052-1.719-5.885-1.719-5.885
					c1.719,5.885-10.216,12.39-10.216,12.39c-8.957,2.781-4.906-3.007-4.906-3.007c12.879-9.137,5.155-14.455,5.155-14.455
					c-3.465,13.444-15.97,8.99-15.97,8.99c-13.75-11.643,1.409-22.542,1.409-22.542c9.965-8.427,19.466,3.059,19.466,3.059
					c2.081-7.707-21.505-10.356-21.505-10.356C170.103,324.861,175.287,322.4,175.287,322.4z M188.406,341.406
					c0,0,3.188,2.22,2.542-0.624c0,0-6.249-14.079-16.453,0.113c0,0,0.091,2.075,2.436,0.603
					C176.931,341.498,186.848,337.879,188.406,341.406z M180.748,349.865c0,0,5.153-0.95,3.944-4.562c0,0-3.231-5.809-7.876,0.728
					C176.815,346.031,175.768,349.881,180.748,349.865z"/>
				<path fill="#FFFFFF" d="M174.072,216.628c0,0,6.154,0.525-0.179,6.793c0,0-61.56,25.127-18.533,66.606
					c0,0-17.052,12.256-17.261,37.957C138.1,327.985,37.883,258.594,174.072,216.628z"/>
				<path fill="#010101" d="M231.943,476.396l0.71,0.979l-0.774-0.194C232.081,476.699,231.943,476.396,231.943,476.396z"/>
				<path fill="#E34398" d="M180.975,464.517l50.905,12.663c-0.496,1.184-3.087,3.448-15.02,4.916
					c-1.375,0.169-2.768,0.188-4.163,0.093C197.079,481.067,180.975,464.517,180.975,464.517z"/>
				<path fill="#E34398" d="M188.593,482.91l45.144,5.198C198.609,496.669,188.593,482.91,188.593,482.91z"/>
				<path fill="#FFFFFF" d="M209.496,448.949l14.135,5.329c0,0-5.902,8.193-15.471,7.82
					C208.16,462.099,202.955,450.547,209.496,448.949z"/>
				<path fill="#E34398" d="M190.949,340.782c0.645,2.844-2.542,0.624-2.542,0.624c-1.558-3.526-11.475,0.092-11.475,0.092
					c-2.345,1.472-2.436-0.603-2.436-0.603C184.7,326.703,190.949,340.782,190.949,340.782z"/>
				<path fill="#E34398" d="M184.691,345.303c1.209,3.611-3.944,4.562-3.944,4.562c-4.979,0.017-3.933-3.834-3.933-3.834
					C181.46,339.494,184.691,345.303,184.691,345.303z"/>
				<path fill="#FFFFFF" d="M158.491,332.793c16.014-5.401,12.193-0.271,12.193-0.271c-17.431,4.244-6.663,19.624-6.663,19.624
					c1.928,3.432-3.31,2.31-3.31,2.31C149.337,348.223,158.491,332.793,158.491,332.793z"/>
				<path fill="#E34398" d="M204.612,664.745l-0.733,6.933c0,0-40.817,12.644-52.392,4.664l4.861-3.885
					C156.348,672.457,182.93,678.129,204.612,664.745z"/>
				<polygon fill="#E34398" points="101.952,313.687 150.784,464.45 126.97,450.679 121.334,437.202 110.417,438.513 
					100.994,396.939 92.709,379.384 97.532,351.213 90.067,344.933 87.752,334.697 97.208,326.993 93.255,317.156 				"/>
				<path fill="#E34398" d="M108.566,590.958c0.022-0.005,6.532-1.587,7.599,3.094c1.064,4.695-17.016,28.896-17.016,28.896
					l-11.596,2.83C98.303,622.362,108.566,590.958,108.566,590.958z"/>
			</g>
			<g>
				<polyline fill="none" stroke="#FFFFFF" stroke-width="5" stroke-linecap="round" stroke-linejoin="round" points="
					101.952,313.687 93.255,317.156 97.208,326.993 87.752,334.697 90.067,344.933 97.532,351.213 92.709,379.384 100.994,396.939 
					110.417,438.513 121.334,437.202 126.97,450.679 150.784,464.45 				"/>
				<polyline fill="none" stroke="#FFFFFF" stroke-width="5" stroke-linecap="round" stroke-linejoin="round" points="
					187.403,215.243 206.446,219.376 207.548,219.014 214.472,216.746 212.731,209.07 223.024,212.637 228.888,211.882 
					227.293,204.846 241.487,214.212 243.977,206.18 251.199,215.22 254.506,206.989 260.714,211.551 266.129,197.407 
					274.655,212.199 281.859,209.773 284.659,214.491 290.088,211.817 292.93,220.575 303.115,216.063 303.372,224.775 
					311.397,222.145 313.276,230.461 322.119,227.631 324.293,237.226 337.023,228.724 337.762,243.394 				"/>
				<polyline fill="none" stroke="#FFFFFF" stroke-width="5" stroke-linecap="round" stroke-linejoin="round" points="
					303.312,376.658 298.555,378.492 298.853,379.806 300.584,387.443 287.289,404.862 288.647,414.656 274.388,431.627 
					276.8,438.464 243.064,449.385 215.602,438.533 				"/>
				<path fill="none" stroke="#FFFFFF" stroke-width="5" stroke-linecap="round" stroke-linejoin="round" d="M192.866,303.217
					c3.278,2.495,43.168,33.354,38.215,55.27c0,0-8.67,26.413,15.328,33.389c0,0,27.042,20.405,43.197-18.627"/>
				
					<line fill="none" stroke="#FFFFFF" stroke-width="5" stroke-linecap="round" stroke-linejoin="round" x1="192.866" y1="303.217" x2="192.652" y2="303.058"/>
				<path fill="none" stroke="#FFFFFF" stroke-width="5" stroke-linecap="round" stroke-linejoin="round" d="M180.975,464.517
					c0,0,16.104,16.551,31.722,17.672c1.396,0.096,2.788,0.076,4.163-0.093c11.933-1.468,14.524-3.732,15.02-4.916
					c0.201-0.48,0.063-0.784,0.063-0.784l0.71,0.979l5.55,7.62l5.817-4.792"/>
				<path fill="none" stroke="#FFFFFF" stroke-width="5" stroke-linecap="round" stroke-linejoin="round" d="M188.593,482.91
					c0,0,10.016,13.759,45.144,5.198"/>
			</g>
		</g>
	</g>
	<g id="Layer_2" display="none">
	</g>
	<g>
		<g>
			<path fill="#E34398" d="M98.755,323.941c18.044,45.436,27.136,94.232,49.775,137.856c4.455,8.584,17.386,0.972,12.939-7.596
				c-21.993-42.379-30.688-89.983-48.225-134.144c-1.509-3.798-4.89-6.454-9.186-5.303
				C100.457,315.721,97.243,320.133,98.755,323.941L98.755,323.941z"/>
		</g>
	</g>
	<g>
		<g>
			<path fill="#E34398" d="M110.98,315.765c3.58,3.525,4.871,4.475,3.873,2.85c-0.318-0.658-0.176-0.312,0.428,1.037
				c-0.225-0.608-0.364-1.25-0.503-1.881c-0.126-0.571-0.446-3.184-0.155-0.645c-0.079-0.688-0.112-1.38-0.122-2.072
				c-0.054-4.085-3.301-7.528-7.447-7.556c-4.024-0.026-7.61,3.361-7.556,7.448c0.069,5.209,1.191,13.996,7.521,15.29
				c4.006,0.818,8.081-1.125,9.215-5.255C117.264,321.235,114.983,316.583,110.98,315.765L110.98,315.765z"/>
		</g>
	</g>
	<g>
		<g>
			<path fill="#E34398" d="M214.25,229.495c17.474,8.378,37.122,7.61,55.817,10.918c20.228,3.58,38.991,12.805,59.879,13.088
				c9.692,0.131,9.765-14.873,0.108-15.004c-19.409-0.263-37.226-8.958-56.027-12.555c-17.085-3.269-36.288-1.772-52.277-9.438
				C213.078,212.347,205.514,225.307,214.25,229.495L214.25,229.495z"/>
		</g>
	</g>
	<g>
		<g>
			<path fill="#E34398" d="M492.25,591.495c13.096,7.396,28.587,5.896,39.082-5.22c6.627-7.018-4.004-17.605-10.664-10.551
				c-5.895,6.242-13.53,6.952-20.918,2.78C491.325,573.746,483.817,586.732,492.25,591.495L492.25,591.495z"/>
		</g>
	</g>
	<g>
		<g>
			<path fill="#E34398" d="M275.946,615.502c14.518,0.089,39.703,2.931,43.29-16.521c1.744-9.46-12.717-13.47-14.471-3.961
				c-0.812,4.403-5.166,5.077-10.077,5.521c-6.197,0.56-12.429-0.005-18.634-0.043C266.365,600.438,266.285,615.442,275.946,615.502
				L275.946,615.502z"/>
		</g>
	</g>
	<g>
		<g>
			<path fill="#E34398" d="M168.235,679.98c-0.531,3.388-5.157,3.153-2,2.923c1.687-0.124,3.396-0.068,5.087-0.068
				c3.513-0.002,6.972-0.294,10.449-0.801c8.078-1.177,15.488-4.18,23.17-6.79c9.11-3.095,5.286-17.604-3.882-14.488
				c-8.865,3.012-17.436,6.648-26.92,7.041c-6.795,0.281-18.901-1.175-20.374,8.223c-0.633,4.039,0.99,8.044,5.254,9.216
				C162.626,686.226,167.602,684.021,168.235,679.98L168.235,679.98z"/>
		</g>
	</g>
	<g>
		<g>
			<path fill="#E34398" d="M277.02,376.235c1.021,0.296,2.063,0.483,3.126,0.562c0.4-0.029,0.8-0.059,1.2-0.088
				c1.632-0.115,1.6-0.187-0.096-0.215c2.5-4.33,5-8.66,7.5-12.99c-12.461-5.322-21.1-16.369-32-24
				c-10.544-7.382-14.613-20.752-24.475-28.837c-4.759-3.902-12.85-1.713-12.777,5.278c0.028,2.759,0.26,5.409,1.257,7.996
				c4.173-2.425,8.347-4.85,12.52-7.274c-5.69-4.568-11.318-9.301-17.525-13.163c-8.229-5.12-15.703,7.887-7.5,12.99
				c5.135,3.195,9.767,7.059,14.475,10.837c2.66,2.135,5.94,2.974,9.073,1.137c2.648-1.553,4.629-5.344,3.447-8.411
				c-0.595-1.543-0.726-2.361-0.743-4.004c-4.259,1.759-8.518,3.519-12.777,5.278c10.479,8.592,14.926,22.341,26.309,30.311
				c11.293,7.907,20.285,19.33,33.217,24.852c8.723,3.725,15.817-7.612,7.5-12.99c-2.791-1.805-4.961-1.047-7.77-1.74
				C271.583,359.447,267.628,373.918,277.02,376.235L277.02,376.235z"/>
		</g>
	</g>
	<g>
		<g>
			<path fill="#E34398" d="M218.946,442.502c15.578-1.914,28.81-13.517,41.48-21.897c7.755-5.13,15.863-9.037,23.188-14.932
				c8.064-6.49,15.104-14.724,19.882-23.922c4.449-8.564-8.522-16.101-12.99-7.5c-4.027,7.752-9.687,14.073-16.252,19.78
				c-6.525,5.673-14.276,8.975-21.422,13.635c-5.828,3.801-11.477,7.866-17.34,11.614c-4.683,2.993-11.514,7.614-16.437,8.219
				c-4.055,0.498-7.526,2.97-7.556,7.448C211.474,438.63,214.88,443.001,218.946,442.502L218.946,442.502z"/>
		</g>
	</g>
</g>
</svg>
