<?xml version="1.0" encoding="utf-8"?>
<!-- Generator: Adobe Illustrator 16.0.0, SVG Export Plug-In . SVG Version: 6.00 Build 0)  -->
<!DOCTYPE svg PUBLIC "-//W3C//DTD SVG 1.1//EN" "http://www.w3.org/Graphics/SVG/1.1/DTD/svg11.dtd">
<svg version="1.1" id="Layer_1" xmlns="http://www.w3.org/2000/svg" xmlns:xlink="http://www.w3.org/1999/xlink" x="0px" y="0px"
	 width="787.592px" height="685.657px" viewBox="0 0 787.592 685.657" enable-background="new 0 0 787.592 685.657"
	 xml:space="preserve">
<g id="XMLID_15_">
	<g>
		<path fill="#FFFFFF" d="M614.048,64.92c-8.228,10.032-47.227,57.087-56.286,58.719l3.257-0.11
			c-13.497,11.259-231.059,194.735-319.838,395.232c0.061-0.844,0.11-1.291,0.11-1.291c-2.884,3.407-5.73,5.963-8.515,7.806
			c-7.816,1.34-21.334-1.088-41.804-19.787c-7.199-107.574,40.897-247.726,112.107-334.244
			c33.805-41.068,74.575-75.604,117.729-102.059c0.763-0.222,2.003-0.582,3.666-1.054c28.331-8.022,179.732-48.691,191.102-5.083
			C615.575,63.05,615.03,63.72,614.048,64.92z"/>
		<path fill="#FFFFFF" d="M587.182,112.469c0.753-0.237,102.91-32.766,145.784,41.041c0,0,38.26,87.718,30.435,169.041l0.267,0.085
			c-19.322,66.391-54.206,132.435-98.958,188.416c-33.822,42.311-83.657,81.036-139.008,108.899l-0.064-0.141
			c-4.414,1.358-8.758,2.652-13.036,3.89l-0.052-0.201c-272.435,71.872-271.275-102.327-271.275-102.327s-0.079,0.091-0.238,0.249
			c0.043-1.108,0.096-2.004,0.145-2.658c88.779-200.497,306.341-383.973,319.838-395.232l1.284-0.042c0,0,9.759-5.458,24.87-11.04
			L587.182,112.469z"/>
		<path fill="#010101" d="M732.514,61.631c25.774,32.193,40.393,70.816,45.688,112.754C740.186,20.621,600.18,13.309,555.912,14.96
			C628.432,0.993,694.491,14.141,732.514,61.631z"/>
		<path fill="#010101" d="M616.071,50.558c0,0,4.519,9.414-2.023,14.362c0.982-1.2,1.527-1.87,1.527-1.87
			c-11.369-43.608-162.771-2.939-191.102,5.083l-0.031-0.125C424.442,68.008,581.289,5.784,616.071,50.558z"/>
		<path fill="#010101" d="M732.966,153.509c-42.874-73.806-145.031-41.278-145.784-41.041l-0.009-0.021
			C625.293,98.362,697.471,83.495,732.966,153.509z"/>
		<path fill="#333333" d="M525.637,619.81l0.064,0.141c-88.289,44.441-190.612,61.234-264.349,20.81
			c-20.12-11.031-35.553-27.245-46.812-47.244l0.321-0.201c6.066-23.597,14.442-47.223,24.598-70.627
			c0.78-0.527,1.301-0.996,1.577-1.268c-1.058,26.88,4.327,179.594,271.565,102.279C516.879,622.462,521.223,621.168,525.637,619.81
			z"/>
		<path fill="#333333" d="M424.442,68.008l0.031,0.125c-1.663,0.472-2.903,0.832-3.666,1.054
			c7.153-4.385,14.369-8.549,21.633-12.483c6.155-3.334,12.341-6.505,18.546-9.505c31.698-15.331,63.903-26.267,94.926-32.239
			c44.268-1.651,184.273,5.661,222.289,159.426c5.898,46.739,0.212,97.595-14.534,148.25l-0.267-0.085
			c7.825-81.322-30.435-169.041-30.435-169.041c-35.495-70.015-107.673-55.147-145.793-41.062
			c-15.111,5.582-24.87,11.04-24.87,11.04l-1.284,0.042l-3.257,0.11c9.06-1.632,48.059-48.688,56.286-58.719
			c6.542-4.949,2.023-14.362,2.023-14.362C581.289,5.784,424.442,68.008,424.442,68.008z"/>
		<path fill="#010101" d="M241.273,521.171c0,0-1.16,174.199,271.275,102.327l0.052,0.201
			C245.363,701.014,239.978,548.3,241.036,521.42C241.195,521.262,241.273,521.171,241.273,521.171z"/>
		<path fill="#E4218E" d="M241.291,517.471c0,0-0.049,0.447-0.11,1.291c-0.58,1.307-1.154,2.616-1.722,3.926
			c-1.385,0.935-3.588,2.059-6.684,2.589C235.561,523.434,238.407,520.878,241.291,517.471z"/>
		<path fill="#E4218E" d="M241.181,518.762c-0.049,0.654-0.102,1.55-0.145,2.658c-0.275,0.271-0.797,0.74-1.577,1.268
			C240.027,521.378,240.601,520.069,241.181,518.762z"/>
		<path fill="#010101" d="M190.971,505.49c20.47,18.699,33.988,21.127,41.804,19.787c-19.575,12.942-36.158-9.338-41.691-18.154
			C191.047,506.578,191.006,506.036,190.971,505.49z"/>
		<path fill="#E4218E" d="M214.861,593.315l-0.321,0.201c-0.041-0.067-0.079-0.138-0.116-0.204
			c-13.5-24.068-20.98-53.606-23.339-86.189c5.533,8.816,22.116,31.097,41.691,18.154c3.096-0.53,5.298-1.654,6.684-2.589
			C229.303,546.092,220.928,569.718,214.861,593.315z"/>
	</g>
	<g>
		<path fill="none" stroke="#010101" stroke-width="0.5" stroke-linecap="round" stroke-linejoin="round" d="M512.549,623.499
			c-272.435,71.872-271.275-102.327-271.275-102.327s-0.079,0.091-0.238,0.249c-0.275,0.271-0.797,0.74-1.577,1.268
			c-1.385,0.935-3.588,2.059-6.684,2.589c-7.816,1.34-21.334-1.088-41.804-19.787c-0.611-0.56-1.229-1.136-1.855-1.724
			c0,0,0.69,1.319,1.968,3.356c5.533,8.816,22.116,31.097,41.691,18.154c2.785-1.843,5.631-4.398,8.515-7.806
			c0,0-0.049,0.447-0.11,1.291c-0.049,0.654-0.102,1.55-0.145,2.658c-1.058,26.88,4.327,179.594,271.565,102.279
			c4.278-1.237,8.622-2.531,13.036-3.89"/>
		<path fill="none" stroke="#989898" stroke-width="10" stroke-linecap="round" d="M525.701,619.951
			c55.351-27.863,105.186-66.589,139.008-108.899c44.752-55.981,79.636-122.025,98.958-188.416
			c14.746-50.655,20.433-101.511,14.534-148.25c-5.295-41.938-19.913-80.561-45.688-112.754
			C694.491,14.141,628.432,0.993,555.912,14.96c-31.022,5.972-63.228,16.908-94.926,32.239c-6.205,3-12.391,6.17-18.546,9.505
			c-7.264,3.935-14.479,8.098-21.633,12.483c-43.155,26.456-83.924,60.991-117.729,102.059
			c-71.21,86.518-119.306,226.669-112.107,334.244c0.035,0.546,0.076,1.088,0.113,1.633c2.359,32.583,9.839,62.121,23.339,86.189
			c0.038,0.066,0.075,0.137,0.116,0.204c11.259,19.999,26.692,36.213,46.812,47.244
			C335.089,681.185,437.412,664.392,525.701,619.951z"/>
		<path fill="none" stroke="#989898" stroke-width="5" stroke-linecap="round" d="M214.861,593.315
			c6.066-23.597,14.442-47.223,24.598-70.627c0.568-1.31,1.142-2.619,1.722-3.926c88.779-200.497,306.341-383.973,319.838-395.232
			c0.436-0.365,0.658-0.548,0.658-0.548s1.826-1.23,4.635-3.454"/>
		<path fill="none" stroke="#010101" stroke-width="0.5" stroke-linecap="round" stroke-linejoin="round" d="M587.179,112.472
			c0,0,0,0,0.003-0.003c0.753-0.237,102.91-32.766,145.784,41.041"/>
	</g>
</g>
<g id="XMLID_14_">
	<g>
		<path fill="#FFFFFF" d="M522.049,271.949c-1.176,10.372-2.574,22.853-4.071,36.55l-0.141-0.019c0,0-104.485,85.961-157.027,89.698
			c35.289-13.243,89.16-46.22,160.52-126.118L522.049,271.949z"/>
		<path fill="#FFFFFF" d="M587.642,367.018l0.028,0.571l-8.578,0.566c-0.842-26.518,0.575-44.555,2.976-56.812
			C588.93,313.721,587.642,367.018,587.642,367.018z"/>
		<path fill="#858688" d="M756.042,344.339l-114.571-85.789c-0.622-1.289-1.226-2.141-1.81-2.509l-4.227-2.404l0.207-4.447
			l123.957,85.155l-3.477,10.052L756.042,344.339z"/>
		<path fill="#676767" d="M756.042,344.339l-3.112,9.804L645.104,270.06c-0.319-1.315-0.637-2.551-0.951-3.705
			c-0.92-3.368-1.817-6.01-2.682-7.804L756.042,344.339z"/>
		<path fill="#858688" d="M742.499,381.857l-5.51,10.658l-83.117-72.621c-0.582-4.043-1.164-7.978-1.749-11.776L742.499,381.857z"/>
		<path fill="#676767" d="M736.989,392.515l-3.477,10.354l-77.715-69.186c-0.636-4.708-1.279-9.318-1.926-13.789L736.989,392.515z"
			/>
		<path fill="#676767" d="M655.798,333.682l-40.308-35.886c-3.466-6.747-7.91-11.415-13.612-12.122l-20.973-18.672l12.309-0.107
			l60.658,52.999C654.519,324.364,655.162,328.974,655.798,333.682z"/>
		<path fill="#858688" d="M653.872,319.894l-60.658-52.999l8.294-0.072l50.615,41.295
			C652.708,311.916,653.29,315.85,653.872,319.894z"/>
		<path fill="#999999" d="M652.123,308.118l-50.615-41.295l39.004-0.344l4.592,3.582C647.36,279.343,649.739,292.6,652.123,308.118z
			"/>
		<path fill="#999999" d="M549.498,209.597l97.205,2.396c-1.871,0-3.446,0.791-4.746,1.954l-0.186-0.352l-92.978,1.606
			L549.498,209.597z"/>
		<path fill="#676767" d="M645.104,270.06l-4.592-3.582l3.373-0.029l0.268-0.094C644.467,267.508,644.784,268.744,645.104,270.06z"
			/>
		<path fill="#676767" d="M644.152,266.355l-0.268,0.094l-3.373,0.029l-17.099-13.333l2.159-0.307v-6.192l9.703,7.268l6.195,4.638
			C642.335,260.345,643.232,262.987,644.152,266.355z"/>
		<path fill="#CDCCCC" d="M619.938,242.426l-0.002,8.01l0.001,3.203l3.477-0.494l17.099,13.333l-39.004,0.344l-28.764-23.471
			l-0.001-7.329l-7.04,1.602l-0.186,4.003h-1.223l1.174,1.028l-0.472,10.185l15.908,14.161l-28.443,0.252
			c0.476-7.353,0.905-11.704,1.267-12.011l-0.703-20.021l83.11-2.407l0.261,0.016l-0.755,16.359l-10.069-6.915l-0.001-6.256
			l-5.634,1.602V242.426z M606.557,252.838l-0.001-15.216l-21.835,0.001l1.409,15.216L606.557,252.838z"/>
		<polygon fill="#999999" points="636.842,223.207 636.396,232.832 636.136,232.816 553.025,235.223 552.656,224.781 		"/>
		<path fill="#010101" d="M629.806,384.169l7.052,110.51l-44.375-4.802l-0.002-4.006c1.321-10.527-6.056-90.978-6.96-100.733
			C592.438,381.417,608.767,375.2,629.806,384.169z"/>
		<polygon fill="#858688" points="635.642,249.191 635.435,253.638 635.275,253.913 625.572,246.645 625.572,242.276 		"/>
		<path fill="#010101" d="M627.694,364.949l-40.024,2.64l-0.028-0.571c0,0,1.288-53.296-5.574-55.674
			c5.647-28.826,16.744-25.672,16.744-25.672c1.059-0.123,2.08-0.121,3.066,0.002l13.612,12.122
			C626.924,320.056,627.694,364.949,627.694,364.949z"/>
		<polygon fill="#676767" points="625.572,246.645 625.572,252.837 623.413,253.145 619.938,250.436 619.936,250.436 
			619.938,242.426 		"/>
		<polygon fill="#858688" points="625.572,242.276 625.572,246.645 619.938,242.426 623.459,240.824 		"/>
		<polygon fill="#010101" points="625.571,236.02 625.572,242.276 623.459,240.824 619.938,242.426 619.938,237.621 		"/>
		<polygon fill="#010101" points="623.413,253.145 619.937,253.638 619.936,250.436 619.938,250.436 		"/>
		<path fill="#999999" d="M615.49,297.796l40.308,35.886c9.642,71.032,18.392,164.999,18.392,164.999l-37.332-4.002l-7.052-110.51
			c-21.039-8.97-37.367-2.752-44.285,0.969c-2.348,1.265-3.61,2.239-3.61,2.239l2.122,113.711l-40.148,5.607
			c0,0,5.346-189.361,8.578-239.441l28.443-0.252l20.973,18.672c-0.986-0.123-2.008-0.125-3.066-0.002
			c0,0-11.097-3.154-16.744,25.672c-2.4,12.257-3.817,30.294-2.976,56.812l8.578-0.566l40.024-2.64
			C627.694,364.949,626.924,320.056,615.49,297.796z"/>
		<path fill="#676767" d="M615.49,297.796l-13.612-12.122C607.58,286.381,612.024,291.049,615.49,297.796z"/>
		<polygon fill="#010101" points="606.556,237.622 606.557,252.838 586.13,252.839 584.721,237.623 		"/>
		<polygon fill="#858688" points="572.744,243.352 601.508,266.822 593.214,266.895 572.746,249.013 		"/>
		<polygon fill="#676767" points="593.214,266.895 580.905,267.002 564.997,252.841 572.747,252.84 572.746,249.013 		"/>
		<polygon fill="#858688" points="572.746,249.013 565.469,242.656 565.518,241.628 570.631,241.627 572.744,243.352 		"/>
		<polygon fill="#676767" points="565.469,242.656 572.746,249.013 572.747,252.84 564.997,252.841 		"/>
		<polygon fill="#010101" points="572.743,236.022 572.744,243.352 570.631,241.627 565.518,241.628 565.703,237.625 		"/>
		<path fill="#676767" d="M523.606,258.326c1.209-10.484,1.945-16.695,1.945-16.695c0.303-1.103,0.47-2.191,0.523-3.265l26.95-3.143
			l0.703,20.021c-0.361,0.307-0.791,4.658-1.267,12.011h-0.139l-30.274,4.694C522.626,266.867,523.151,262.289,523.606,258.326z
			 M547.39,254.443l-0.705-16.017l-16.904,3.204l0.003,16.818L547.39,254.443z"/>
		<path fill="#333333" d="M553.025,235.223l-26.95,3.143c0.129-2.562-0.399-5.023-1.294-7.297l26.126-6.255l1.749-0.032
			L553.025,235.223z"/>
		<path fill="#676767" d="M552.32,215.202l0.336,9.579l-1.749,0.032l-26.126,6.255c-1.7-4.334-4.733-7.994-7.103-10.396
			l31.115-5.471H552.32z"/>
		<path fill="#333333" d="M502.971,483.456c0.002-3.547,0.109-7.748,0.309-12.494c1.468-34.914,7.89-99.367,13.462-151.073
			c0.42-3.873,0.833-7.676,1.236-11.389c1.497-13.698,2.896-26.178,4.071-36.55l30.274-4.694h0.139
			c-3.232,50.081-8.578,239.441-8.578,239.441l-40.152-12.009C503.203,492.662,502.966,488.799,502.971,483.456z M528.382,413.003
			c0,0,7.04-75.276,2.814-76.077c0,0-2.823-24.825-7.747,76.078L528.382,413.003z M529.092,469.063c0,0,2.812-49.653-3.529-44.849
			c0,0-4.224-12.812-4.925,43.244L529.092,469.063z"/>
		<path fill="#CDCCCC" d="M552.32,215.202h-3.526l92.978-1.606l0.186,0.352c-3.597,3.211-5.115,9.259-5.115,9.259l-84.186,1.574
			L552.32,215.202z"/>
		<path fill="#333333" d="M549.498,209.597l-0.704,5.605l-31.115,5.471c-1.915-1.943-3.396-3.066-3.396-3.066L549.498,209.597z"/>
		<polygon fill="#010101" points="546.685,238.426 547.39,254.443 529.783,258.448 529.78,241.63 		"/>
		<path fill="#010101" d="M531.196,336.927c4.226,0.801-2.814,76.077-2.814,76.077l-4.933,0.001
			C528.373,312.102,531.196,336.927,531.196,336.927z"/>
		<path fill="#010101" d="M525.562,424.214c6.341-4.805,3.529,44.849,3.529,44.849l-8.454-1.604
			C521.339,411.403,525.562,424.214,525.562,424.214z"/>
		<path fill="#CDCCCC" d="M347.241,402.613c-23.692,6.535-35.803,3.194-35.803,3.194c-71.845-16.013-100.566-100.733-90.625-82.576
			c0.374,0.678,0.744,1.342,1.115,2.007C256.486,386.831,300.873,397,300.873,397c92.324,23.055,220.924-136.424,222.733-138.674
			c-0.455,3.963-0.98,8.541-1.558,13.623l-0.719,0.112c-71.36,79.898-125.231,112.875-160.52,126.118
			C355.932,400.013,351.406,401.465,347.241,402.613z"/>
		<path fill="#676767" d="M517.837,308.48l0.141,0.019c-0.403,3.713-0.816,7.517-1.236,11.389l-0.155-0.021
			c-81.725,79.375-156.156,82.801-169.345,82.746c4.165-1.148,8.69-2.6,13.569-4.434C413.352,394.442,517.837,308.48,517.837,308.48
			z"/>
		<path fill="#999999" d="M502.821,470.938l0.458,0.023c-0.199,4.746-0.307,8.947-0.309,12.494l-300.997-97.487l2.319-6.094
			L502.821,470.938z"/>
	</g>
	<g>
	</g>
</g>
<g>
	<g id="XMLID_12_">
		<g>
			<path fill="#FFFFFF" d="M224.833,442.454l10.768-1.945c0,0-2.293,12.705-16.172,16.087
				C219.772,456.34,233.382,446.369,224.833,442.454z"/>
			<path fill="#FFFFFF" d="M177.717,432.336l14.135,5.329c0,0-5.902,8.193-15.471,7.82
				C176.382,445.486,171.177,433.934,177.717,432.336z"/>
			<path fill="#FFFFFF" d="M317.79,228.786c66.32,56.731-19.409,81.679-19.409,81.679l0.763-4.24
				c10.511-10.657,4.773-20.729,4.773-20.729c31.521-13.086,9.846-51.678,9.846-51.678
				C312.308,227.422,317.79,228.786,317.79,228.786z"/>
			<path fill="#FFFFFF" d="M337.052,290.916c0,0,4.993-4.596,2.648,4.075c0,0-7.522,20.062-42.656,28.621
				c0,0,11.999,18.675-12.609,28.052c0,0-3.464-0.299-2.964-1.843c0.166-0.513,0.776-1.166,2.094-1.995
				c0,0,17.104-8.223,9.448-19.177c0,0-13.542,8.696-10.99,16.178l-1.721,4.833l-0.383,1.075c0,0-15.232,5.066-15.49-3.65
				c0,0,29.879-24.157,31.547-31.988C295.976,315.097,337.152,298.987,337.052,290.916z"/>
			<path fill="#FFFFFF" d="M126.712,316.181c16.014-5.401,12.193-0.271,12.193-0.271c-17.431,4.244-6.663,19.624-6.663,19.624
				c1.928,3.432-3.31,2.31-3.31,2.31C117.559,331.61,126.712,316.181,126.712,316.181z"/>
			<path fill="#FFFFFF" d="M142.962,310.124c-4.638-1.875,0.546-4.336,0.546-4.336c42.825,1.259,38.656,35.281,38.656,35.281
				c0.901,3.975-16.94,23.321-16.94,23.321c-10.398,3.142-8.247,0.817-8.247,0.817c6.916-4.988,14.271-23.278,14.271-23.278
				c1.85-7.052-1.719-5.885-1.719-5.885c1.719,5.885-10.216,12.39-10.216,12.39c-8.957,2.781-4.906-3.007-4.906-3.007
				c12.879-9.137,5.155-14.455,5.155-14.455c-3.465,13.444-15.97,8.99-15.97,8.99c-13.75-11.643,1.409-22.542,1.409-22.542
				c9.965-8.427,19.466,3.059,19.466,3.059C166.548,312.772,142.962,310.124,142.962,310.124z M156.628,324.793
				c0,0,3.188,2.22,2.542-0.624c0,0-6.249-14.079-16.453,0.113c0,0,0.091,2.075,2.436,0.603
				C145.153,324.885,155.07,321.267,156.628,324.793z M148.969,333.252c0,0,5.153-0.95,3.944-4.562c0,0-3.231-5.809-7.876,0.728
				C145.037,329.418,143.99,333.269,148.969,333.252z"/>
			<path fill="#FFFFFF" d="M142.115,206.809c0,0-61.56,25.127-18.533,66.606c0,0-17.052,12.256-17.261,37.957
				c0,0-100.217-69.391,35.973-111.356C142.294,200.016,148.448,200.541,142.115,206.809z"/>
			<path fill="#E34398" d="M219.428,456.595c13.879-3.382,16.172-16.087,16.172-16.087l-10.768,1.945
				C233.382,446.369,219.772,456.34,219.428,456.595z M161.088,286.604c3.278,2.495,43.168,33.354,38.215,55.27
				c0,0-8.67,26.413,15.328,33.389c0,0,27.042,20.405,43.197-18.627L161.088,286.604z M281.471,349.82
				c-0.5,1.544,2.964,1.843,2.964,1.843c24.608-9.376,12.609-28.052,12.609-28.052c35.134-8.558,42.656-28.621,42.656-28.621
				c2.345-8.671-2.648-4.075-2.648-4.075c0.1,8.071-41.076,24.181-41.076,24.181c-1.668,7.831-31.547,31.988-31.547,31.988
				c0.257,8.716,15.49,3.65,15.49,3.65l0.383-1.075L281.471,349.82z M143.508,305.788c0,0-5.184,2.46-0.546,4.336
				c0,0,23.586,2.649,21.505,10.356c0,0-9.501-11.486-19.466-3.059c0,0-15.158,10.898-1.409,22.542c0,0,12.505,4.454,15.97-8.99
				c0,0,7.724,5.317-5.155,14.455c0,0-4.051,5.789,4.906,3.007c0,0,11.935-6.504,10.216-12.39c0,0,3.569-1.167,1.719,5.885
				c0,0-7.355,18.29-14.271,23.278c0,0-2.152,2.324,8.247-0.817c0,0,17.842-19.346,16.94-23.321
				C182.165,341.069,186.333,307.046,143.508,305.788z M138.905,315.909c0,0,3.821-5.129-12.193,0.271c0,0-9.153,15.429,2.22,21.662
				c0,0,5.238,1.122,3.31-2.31C132.243,335.533,121.474,320.153,138.905,315.909z M142.115,206.809
				c6.333-6.268,0.179-6.793,0.179-6.793c-136.189,41.965-35.973,111.356-35.973,111.356c0.209-25.701,17.261-37.957,17.261-37.957
				C80.556,231.937,142.115,206.809,142.115,206.809z M55.974,318.084l2.314,10.236l7.465,6.28l-4.823,28.17l8.285,17.556
				l9.423,41.573l10.917-1.311l5.636,13.477l23.814,13.771L70.174,297.074l-8.697,3.469l3.954,9.836L55.974,318.084z
				 M76.788,574.345c0,0-10.263,31.404-21.013,34.82l-0.932,0.228c0.311-0.049,0.622-0.125,0.932-0.228l11.596-2.83
				c0,0,18.08-24.201,17.016-28.896C83.32,572.758,76.81,574.34,76.788,574.345z M15.794,543.342c0,0-7.611-18.386-15.788-16.397
				c0,0-0.627-36.972,10.817-39.761l-1.562-14.47l3.637-14.386l-3.61-4.516l-1.009-4.479l22.769-55.499l-4.487-8.356l13.191-25.485
				c0,0-23.118-75.36,41.447-151.84l1.91-10.59c0,0,14.961-36.721,29.47-44.981c0,0,51.611-53.752,101.698-15.334
				c0,0,48.373,45.005,88.428,39.14c0,0,87.434,0.296,109.644,27.278c0,0,63.282-8.222,36.749-54.252
				c0,0-33.318-19.465-53.055-10.177c0.698-0.422,22.01-13.433-23.161-0.646c0,0,0.917-13.728-19.551-5.135
				c0,0,13.318-12.246,32.162-12.792l-0.457-7.088c0,0,34.453,2.408,35.382,3.977l-2.085-6.691c0,0,24.204,5.351,25.751,12.178
				l0.574,2.556l9.072-3.106l5.082,19.907l2.917,0.189c0,0,18.102,46.892-20.233,67.93c0,0-39.161,7.298-12.535,23.305
				c0,0,31.024,66.958,24.806,92.773c0,0,10.511,31.184,7.151,35.377c0,0-3.768,25.218,16.686,43.183
				c0,0,15.656,27.229-3.696,40.721l6.655,17.952c0,0-9.438,30.654-18.803,34.957c0,0,26.262,55.024,38.812,53.315l4.054,17.907
				l3.939-1.635L512.337,585c0,0-8.35,8.784-16.434,7.38l-1.97-4.915c0,0-4.134-3.048-7.5,1.147l0.778,7.235
				c0,0-13.112,10.62-35.141-2.906l-5.041-29.821l5.381-6.716l-16.698-54.649l-10.622,2.589l-9.252-17.995l-4.519-0.919
				l-5.647-13.479l-12.11,3.631c0,0,1.857-14.628-3.045-13.433l-2.394,4.629l-5.719,1.394c0,0,1.277-17.186-12.611-13.797
				l-2.352,8.669l-12.249,2.989l-1.002,6.99l-7.266-1.601l0.791,18.703l-10.615,2.591l1.885,8.315l-10.913,1.306l1.021,4.476
				l-5.724,1.399l-3.375-7.281c0,0-9.943,1.753-8.771,18.337l-5.863,0.759c0,0-3.467-3.885-5.918-3.287
				c0,0-28.851,40.105-13.075,45.04l6.485,36.215c0,0-23.425,25.953-39.72,22.505c0,0-0.996-23.387-10.681-1.452
				c0,0-12.399,2.352-4.885-29.184l-0.923-7.875c0,0,22.313-27.033,6.8-23.252c0,0-20.123,17.724-18.679,24.122l-4.994,4.592
				c0,0-14.133-5.321-17.401-4.524c0,0-18.692,12.65-16.519,22.241c0,0,0.767,37.616-6.968,41.526l1.463,17.864
				c0,0-27.703,22.271-43.047,19.266c0,0,7.196-13.899,2.292-12.709c0,0-7.15,6.468-7.103,10.506
				c0.058,4.036,0.058,4.036,0.058,4.036s-15.78-4.93-16.645-8.769c0,0,2.516-26.938,4.962-27.529c2.45-0.602,2.45-0.602,2.45-0.602
				s-1.062-8.516,1.384-9.107c0,0,41.609-56.036,30.176-53.249l-14.291-5.968c0,0-1.979-46.767,8.498-49.995
				c10.481-3.233-2.215-2.164-2.215-2.164s-17.816,16.491-16.511,22.248c0,0-15.242-6.41-14.617-11.287l-6.45-1.803l4.564-6.513
				l-7.643,0.513c0,0-3.985-32.77,0.1-33.765c0,0-31.787-7.107-39.555,4.24l4.975,25.777c0,0-5.613,9.468-9.983,9.184l-0.024,18.91
				c0,0-4.653,9.903,2.465,10.874l13.506-1.271l15.493,15.124c0,0,9.436,11.2,5.694,17.512l-13.291,17.414l-6.826,0.313
				c0,0-8.136-5.438-10.588-4.845c-2.451,0.598-2.451,0.598-2.451,0.598l8.566,7.362l-2.92,6.111L39.657,603l-3.519-7.917
				C36.138,595.083,3.581,580.748,15.794,543.342z M499.863,564.383l-0.029-2.693c0.029,2.693-40.639,5.854-40.639,5.854
				c17.159,9.768,30.452,2.482,30.452,2.482l0.702-1.971L499.863,564.383z M298.381,310.465c0,0,85.729-24.947,19.409-81.679
				c0,0-5.482-1.364-4.027,5.031c0,0,21.675,38.592-9.846,51.678c0,0,5.737,10.072-4.773,20.729L298.381,310.465z M305.984,226.781
				l-0.739-14.669l-12.73,8.502l-2.175-9.595l-8.842,2.83l-1.879-8.317l-8.025,2.631l-0.256-8.712l-10.186,4.512l-2.842-8.757
				l-5.429,2.673l-2.799-4.718l-7.204,2.426l-8.526-14.792l-5.416,14.145l-6.208-4.562l-3.307,8.23l-7.222-9.04l-2.49,8.032
				l-14.193-9.366l1.595,7.036l-5.864,0.754l-10.292-3.567l1.74,7.676l-6.924,2.268l-20.145-3.771l19.043,4.134l1.102-0.363
				L305.984,226.781z M267.075,363.193l4.459-3.148l-4.757,1.834L267.075,363.193l-83.251,58.728l27.463,10.852l33.736-10.921
				l-2.412-6.837l14.259-16.971l-1.358-9.794l13.295-17.419L267.075,363.193z M276.253,589.628c0,0,14.183-8.406,7.484-12.624
				c0,0-15.044,19.871-42.843,11.342c0,0,3.761,8.983,9.208,7.655L276.253,589.628z M206.425,468.381l5.817-4.792l-11.367-2.828
				l-0.71-0.979c0,0,0.138,0.304-0.063,0.784l-50.905-12.663c0,0,16.104,16.551,31.722,17.672c1.396,0.096,2.788,0.076,4.163-0.093
				c11.933-1.468,14.524-3.732,15.02-4.916l0.774,0.194L206.425,468.381z M201.958,471.496l-45.144-5.198
				C156.814,466.297,166.831,480.056,201.958,471.496z M191.853,437.666l-14.135-5.329c-6.541,1.598-1.335,13.149-1.335,13.149
				C185.95,445.859,191.853,437.666,191.853,437.666z M172.1,655.065l0.733-6.933c-21.682,13.384-48.264,7.712-48.264,7.712
				l-4.861,3.885C131.283,667.708,172.1,655.065,172.1,655.065z"/>
			<path fill="#E34398" d="M499.834,561.69l0.029,2.693l-9.514,3.673l-0.702,1.971c0,0-13.293,7.285-30.452-2.482
				C459.195,567.544,499.863,564.383,499.834,561.69z"/>
			<polygon fill="#E34398" points="305.245,212.111 305.984,226.781 175.77,202.401 182.693,200.133 180.953,192.457 
				191.246,196.024 197.11,195.27 195.515,188.233 209.708,197.599 212.199,189.567 219.421,198.607 222.728,190.376 
				228.936,194.938 234.351,180.794 242.877,195.586 250.081,193.16 252.88,197.878 258.31,195.205 261.151,203.962 271.337,199.45 
				271.593,208.163 279.619,205.532 281.498,213.849 290.34,211.019 292.515,220.613 			"/>
			<path fill="#E34398" d="M293.013,328.648c7.656,10.955-9.448,19.177-9.448,19.177c-1.318,0.83-1.929,1.482-2.094,1.995
				l-1.168-0.161l1.721-4.833C279.47,337.344,293.013,328.648,293.013,328.648z"/>
			<polygon fill="#010101" points="271.534,360.045 267.075,363.193 266.777,361.879 			"/>
			<polygon fill="#E34398" points="267.075,363.193 268.806,370.83 255.511,388.25 256.869,398.043 242.61,415.014 245.022,421.851 
				211.286,432.772 183.823,421.92 			"/>
			<path fill="#E34398" d="M161.088,286.604l96.741,70.031c-16.155,39.032-43.197,18.627-43.197,18.627
				c-23.998-6.977-15.328-33.389-15.328-33.389C204.256,319.958,164.366,289.099,161.088,286.604z"/>
			<path fill="#E34398" d="M283.738,577.004c6.698,4.218-7.484,12.624-7.484,12.624l-26.151,6.373
				c-5.447,1.328-9.208-7.655-9.208-7.655C268.694,596.875,283.738,577.004,283.738,577.004z"/>
			<polygon fill="#010101" points="175.77,202.401 174.668,202.764 155.625,198.63 			"/>
			<polygon fill="#E34398" points="212.242,463.589 206.425,468.381 200.875,460.761 			"/>
			<path fill="#010101" d="M200.165,459.783l0.71,0.979l-0.774-0.194C200.303,460.086,200.165,459.783,200.165,459.783z"/>
			<path fill="#E34398" d="M149.196,447.904l50.905,12.663c-0.496,1.184-3.087,3.448-15.02,4.916
				c-1.375,0.169-2.768,0.188-4.163,0.093C165.3,464.455,149.196,447.904,149.196,447.904z"/>
			<path fill="#E34398" d="M156.814,466.297l45.144,5.198C166.831,480.056,156.814,466.297,156.814,466.297z"/>
			<path fill="#E34398" d="M159.17,324.169c0.645,2.844-2.542,0.624-2.542,0.624c-1.558-3.526-11.475,0.092-11.475,0.092
				c-2.345,1.472-2.436-0.603-2.436-0.603C152.921,310.09,159.17,324.169,159.17,324.169z"/>
			<path fill="#E34398" d="M152.913,328.69c1.209,3.611-3.944,4.562-3.944,4.562c-4.979,0.017-3.933-3.834-3.933-3.834
				C149.682,322.881,152.913,328.69,152.913,328.69z"/>
			<path fill="#E34398" d="M172.833,648.132l-0.733,6.933c0,0-40.817,12.644-52.392,4.664l4.861-3.885
				C124.57,655.844,151.152,661.516,172.833,648.132z"/>
			<polygon fill="#E34398" points="58.289,328.32 55.974,318.084 65.43,310.38 61.477,300.543 70.174,297.074 119.005,447.837 
				95.191,434.066 89.556,420.589 78.639,421.9 69.215,380.327 60.931,362.771 65.753,334.601 			"/>
			<path fill="#E34398" d="M84.386,577.439c1.064,4.695-17.016,28.896-17.016,28.896l-11.596,2.83
				c10.75-3.416,21.013-34.82,21.013-34.82C76.81,574.34,83.32,572.758,84.386,577.439z"/>
		</g>
		<g>
			<polyline fill="none" stroke="#FFFFFF" stroke-width="5" stroke-linecap="round" stroke-linejoin="round" points="
				70.174,297.074 61.477,300.543 65.43,310.38 55.974,318.084 58.289,328.32 65.753,334.601 60.931,362.771 69.215,380.327 
				78.639,421.9 89.556,420.589 95.191,434.066 119.005,447.837 			"/>
			<polyline fill="none" stroke="#FFFFFF" stroke-width="5" stroke-linecap="round" stroke-linejoin="round" points="
				155.625,198.63 174.668,202.764 175.77,202.401 182.693,200.133 180.953,192.457 191.246,196.024 197.11,195.27 195.515,188.233 
				209.708,197.599 212.199,189.567 219.421,198.607 222.728,190.376 228.936,194.938 234.351,180.794 242.877,195.586 
				250.081,193.16 252.88,197.878 258.31,195.205 261.151,203.962 271.337,199.45 271.593,208.163 279.619,205.532 281.498,213.849 
				290.34,211.019 292.515,220.613 305.245,212.111 305.984,226.781 			"/>
			<polyline fill="none" stroke="#FFFFFF" stroke-width="5" stroke-linecap="round" stroke-linejoin="round" points="
				271.534,360.045 266.777,361.879 267.075,363.193 268.806,370.83 255.511,388.25 256.869,398.043 242.61,415.014 
				245.022,421.851 211.286,432.772 183.823,421.92 			"/>
			<path fill="none" stroke="#FFFFFF" stroke-width="5" stroke-linecap="round" stroke-linejoin="round" d="M161.088,286.604
				c3.278,2.495,43.168,33.354,38.215,55.27c0,0-8.67,26.413,15.328,33.389c0,0,27.042,20.405,43.197-18.627"/>
			
				<line fill="none" stroke="#FFFFFF" stroke-width="5" stroke-linecap="round" stroke-linejoin="round" x1="161.088" y1="286.604" x2="160.874" y2="286.445"/>
			<path fill="none" stroke="#FFFFFF" stroke-width="5" stroke-linecap="round" stroke-linejoin="round" d="M149.196,447.904
				c0,0,16.104,16.551,31.722,17.672c1.396,0.096,2.788,0.076,4.163-0.093c11.933-1.468,14.524-3.732,15.02-4.916
				c0.201-0.48,0.063-0.784,0.063-0.784l0.71,0.979l5.55,7.62l5.817-4.792"/>
			<path fill="none" stroke="#FFFFFF" stroke-width="5" stroke-linecap="round" stroke-linejoin="round" d="M156.814,466.297
				c0,0,10.016,13.759,45.144,5.198"/>
		</g>
	</g>
</g>
</svg>
